<svg xmlns="http://www.w3.org/2000/svg" viewBox="0 0 752.36 103.93"><defs><style>.cls-1{fill:#fff;}.cls-2{fill:none;stroke:#fdfdfd;stroke-miterlimit:10;stroke-width:8px;stroke-dasharray:40;}</style></defs><g id="Capa_2" data-name="Capa 2"><g id="Capa_1-2" data-name="Capa 1"><path class="cls-1" d="M0,99.93V0H44.45A21.3,21.3,0,0,1,60.09,6.56a21.34,21.34,0,0,1,6.53,15.61V33.31A21.31,21.31,0,0,1,60.09,49a21.31,21.31,0,0,1-15.64,6.53H22.17V99.93ZM22.17,44.45H33.31a10.71,10.71,0,0,0,7.84-3.31,10.7,10.7,0,0,0,3.3-7.83V22.17a10.54,10.54,0,0,0-3.3-7.78,10.81,10.81,0,0,0-7.84-3.25H22.17Z"/><path class="cls-1" d="M88.79,99.93V0H111V88.8h33.31V99.93Z"/><path class="cls-1" d="M166.56,99.93V22.17a21.33,21.33,0,0,1,6.53-15.64A21.35,21.35,0,0,1,188.73,0H211a21.32,21.32,0,0,1,15.64,6.56,21.38,21.38,0,0,1,6.53,15.61V99.93H211V55.48H188.73V99.93Zm22.17-55.48H211V22.17a10.55,10.55,0,0,0-3.31-7.78,11.09,11.09,0,0,0-15.69,0,10.56,10.56,0,0,0-3.28,7.78Z"/><path class="cls-1" d="M277.52,99.93V55.48q-22.17-2.53-22.17-22.17V0h22.17V33.31a10.76,10.76,0,0,0,3.28,7.83,11,11,0,0,0,15.7,0,10.7,10.7,0,0,0,3.3-7.83V0H322V33.31q0,19.62-22.17,22.17V99.93Z"/><path class="cls-1" d="M394.37,15.68H387.1q-1-7.34-6.92-7.34a8.18,8.18,0,0,0-5.8,1.85,7.28,7.28,0,0,0-1.95,5.52,7.57,7.57,0,0,0,2.16,5.14l15.49,17.41a15.24,15.24,0,0,1,4.29,10.32v3.7a14.12,14.12,0,0,1-4.29,10.27,14,14,0,0,1-10.31,4.33h-7.34q-7.26,0-10.93-3.67t-3.67-10.93h7.33q-.06.75-.06,1.2A5.08,5.08,0,0,0,367.39,58a8.84,8.84,0,0,0,5,1.55q3.92,0,5.62-1.89a7.88,7.88,0,0,0,1.72-5.48A7.47,7.47,0,0,0,377.61,47l-15.5-17.35a15.16,15.16,0,0,1-4.28-10.31v-3.7a14.13,14.13,0,0,1,4.28-10.29,14,14,0,0,1,10.32-4.31h7.34Q393.47,1.08,394.37,15.68Z"/><path class="cls-1" d="M438.3,37.61V30.35A7.39,7.39,0,0,0,431,23h-7.34c-4.31,0-6.74,2.45-7.26,7.34H409q1.68-14.67,14.6-14.67H438.3A14,14,0,0,1,448.6,20a14.17,14.17,0,0,1,4.3,10.34V66.88H438.3V59.55q-.85,7.33-7.33,7.33h-7.34A14.7,14.7,0,0,1,409,52.28v-.07a14.72,14.72,0,0,1,14.6-14.6Zm0,7.34H431a7.09,7.09,0,0,0-5.18,2.14,7,7,0,0,0-2.16,5.12v.07a7.34,7.34,0,0,0,14.67,0Z"/><path class="cls-1" d="M496.77,15.68h14.61V41.9A24.11,24.11,0,0,1,504,59.5a24,24,0,0,1-17.63,7.38H467.5V15.68h14.6V59.55h7.34a7.34,7.34,0,0,0,7.33-7.27Z"/><path class="cls-1" d="M569.85,45H540.58v7.33a7.34,7.34,0,0,0,7.33,7.27h7.33q7.28,0,7.27-7.27h7.34q-1.73,14.6-14.61,14.6H540.58A14.7,14.7,0,0,1,526,52.28V30.35A14.1,14.1,0,0,1,530.29,20a14.07,14.07,0,0,1,10.29-4.3h14.66A14,14,0,0,1,565.54,20a14.17,14.17,0,0,1,4.31,10.34Zm-29.27-7.34h14.66V30.35a7.33,7.33,0,0,0-14.66,0Z"/><path class="cls-1" d="M613.71,1.08h14.61V41.9A24.11,24.11,0,0,1,621,59.5a24,24,0,0,1-17.63,7.38H584.44V1.08h14.61V59.55h7.33a7.34,7.34,0,0,0,7.33-7.27Z"/><path class="cls-1" d="M642.92,8.41V1.08h14.6V8.41Zm0,58.47V15.68h14.6v51.2Z"/><path class="cls-1" d="M701.45,37.61V30.35A7.39,7.39,0,0,0,694.12,23h-7.34c-4.31,0-6.74,2.45-7.26,7.34h-7.34q1.68-14.67,14.6-14.67h14.67A14,14,0,0,1,711.75,20a14.17,14.17,0,0,1,4.3,10.34V66.88h-14.6V59.55q-.86,7.33-7.33,7.33h-7.34a14.7,14.7,0,0,1-14.6-14.6v-.07a14.72,14.72,0,0,1,14.6-14.6Zm0,7.34h-7.33a7.09,7.09,0,0,0-5.18,2.14,7,7,0,0,0-2.16,5.12v.07a7.34,7.34,0,0,0,14.67,0Z"/><path class="cls-1" d="M730.65,66.88V1.08h14.6v65.8Z"/><line class="cls-2" x1="348.11" y1="99.93" x2="752.36" y2="99.93"/></g></g></svg>