<svg xmlns="http://www.w3.org/2000/svg" viewBox="0 0 1396.98 189.56"><defs><style>.cls-1{fill:#fff;}.cls-2{fill:none;stroke:#fdfdfd;stroke-miterlimit:10;stroke-width:8px;stroke-dasharray:40;}</style></defs><g id="Capa_2" data-name="Capa 2"><g id="Capa_1-2" data-name="Capa 1"><path class="cls-1" d="M0,185.56V0H82.54a39.55,39.55,0,0,1,29,12.18,39.69,39.69,0,0,1,12.13,29V61.85a39.62,39.62,0,0,1-12.13,29,39.62,39.62,0,0,1-29,12.13H41.17v82.54Zm41.17-103H61.85A19.89,19.89,0,0,0,76.4,76.4a19.89,19.89,0,0,0,6.14-14.55V41.17A19.59,19.59,0,0,0,76.4,26.72a20.06,20.06,0,0,0-14.55-6H41.17Z"/><path class="cls-1" d="M164.87,185.56V0H206V164.88H267.9v20.68Z"/><path class="cls-1" d="M309.26,185.56V41.17a39.62,39.62,0,0,1,12.13-29A39.6,39.6,0,0,1,350.43,0H391.8a39.55,39.55,0,0,1,29,12.18,39.69,39.69,0,0,1,12.13,29V185.56H391.8V103H350.43v82.54Zm41.17-103H391.8V41.17a19.59,19.59,0,0,0-6.14-14.45,20.59,20.59,0,0,0-29.14,0,19.65,19.65,0,0,0-6.09,14.45Z"/><path class="cls-1" d="M515.31,185.56V103q-41.17-4.72-41.18-41.17V0h41.18V61.85a20,20,0,0,0,6.08,14.55,20.36,20.36,0,0,0,29.14,0,19.89,19.89,0,0,0,6.14-14.55V0h41.17V61.85q0,36.43-41.17,41.17v82.54Z"/><path class="cls-1" d="M732.26,29.11H718.77Q717,15.49,705.91,15.49q-7.12,0-10.75,3.44t-3.63,10.24a14,14,0,0,0,4,9.55L724.3,71.05q8,8.91,8,19.15v6.88a27.33,27.33,0,0,1-27.11,27.11H691.53q-13.5,0-20.3-6.81t-6.81-20.3H678c-.09.93-.13,1.67-.13,2.22a9.48,9.48,0,0,0,4.26,8.4,16.45,16.45,0,0,0,9.36,2.87c4.84,0,8.31-1.17,10.44-3.5s3.18-5.73,3.18-10.18a13.93,13.93,0,0,0-4-9.55l-28.77-32.2q-7.95-8.85-8-19.16V29.11a26.17,26.17,0,0,1,8-19.09,26,26,0,0,1,19.16-8h13.62Q730.61,2,732.26,29.11Z"/><path class="cls-1" d="M813.84,69.84V56.35a13.74,13.74,0,0,0-13.62-13.62H786.6q-12,0-13.49,13.62H759.49q3.12-27.24,27.11-27.24h27.24a26,26,0,0,1,19.13,8,26.31,26.31,0,0,1,8,19.19v67.84H813.84V110.57q-1.59,13.62-13.62,13.62H786.6a27.28,27.28,0,0,1-27.11-27.11V97A27.32,27.32,0,0,1,786.6,69.84Zm0,13.62H800.22a13.18,13.18,0,0,0-9.61,4,13,13,0,0,0-4,9.52v.13a13.62,13.62,0,0,0,27.24,0Z"/><path class="cls-1" d="M922.41,29.11h27.11V77.79q0,19-13.65,32.68a44.56,44.56,0,0,1-32.74,13.72H868.06V29.11h27.11v81.46h13.62a13.64,13.64,0,0,0,13.62-13.49Z"/><path class="cls-1" d="M1058.09,83.46h-54.35V97.08a13.64,13.64,0,0,0,13.62,13.49H1031q13.49,0,13.49-13.49h13.62q-3.18,27.11-27.11,27.11h-27.24a27.28,27.28,0,0,1-27.11-27.11V56.35a26.16,26.16,0,0,1,8-19.25,26.09,26.09,0,0,1,19.09-8H1031a26,26,0,0,1,19.12,8,26.28,26.28,0,0,1,8,19.19Zm-54.35-13.62H1031V56.35a13.62,13.62,0,0,0-27.24,0Z"/><path class="cls-1" d="M1139.55,2h27.11V77.79q0,19-13.65,32.68a44.6,44.6,0,0,1-32.75,13.72H1085.2V2h27.11V110.57h13.62a13.64,13.64,0,0,0,13.62-13.49Z"/><path class="cls-1" d="M1193.76,15.62V2h27.11V15.62Zm0,108.57V29.11h27.11v95.08Z"/><path class="cls-1" d="M1302.46,69.84V56.35a13.74,13.74,0,0,0-13.62-13.62h-13.62q-12,0-13.49,13.62h-13.62q3.12-27.24,27.11-27.24h27.24a26,26,0,0,1,19.12,8,26.28,26.28,0,0,1,8,19.19v67.84h-27.11V110.57q-1.59,13.62-13.62,13.62h-13.62a27.28,27.28,0,0,1-27.11-27.11V97a27.32,27.32,0,0,1,27.11-27.11Zm0,13.62h-13.62a13.16,13.16,0,0,0-9.61,4,13,13,0,0,0-4,9.52v.13a13.62,13.62,0,0,0,27.24,0Z"/><path class="cls-1" d="M1356.68,124.19V2h27.11V124.19Z"/><line class="cls-2" x1="646.36" y1="185.56" x2="1396.98" y2="185.56"/></g></g></svg>