<svg xmlns="http://www.w3.org/2000/svg" viewBox="0 0 923.99 126.73"><defs><style>.cls-1{fill:#fff;}.cls-2{fill:none;stroke:#fdfdfd;stroke-miterlimit:10;stroke-width:8px;stroke-dasharray:40;}</style></defs><g id="Capa_2" data-name="Capa 2"><g id="Capa_1-2" data-name="Capa 1"><path class="cls-1" d="M0,122.73V0H54.59A26.19,26.19,0,0,1,73.8,8.05a26.25,26.25,0,0,1,8,19.18V40.91a26.2,26.2,0,0,1-8,19.21,26.2,26.2,0,0,1-19.21,8H27.23v54.59ZM27.23,54.59H40.91a13.13,13.13,0,0,0,9.62-4.06,13.13,13.13,0,0,0,4.06-9.62V27.23a12.94,12.94,0,0,0-4.06-9.56,13.26,13.26,0,0,0-9.62-4H27.23Z"/><path class="cls-1" d="M109.05,122.73V0h27.23V109.05h40.91v13.68Z"/><path class="cls-1" d="M204.55,122.73V27.23a26.2,26.2,0,0,1,8-19.21,26.2,26.2,0,0,1,19.21-8h27.36a26.19,26.19,0,0,1,19.21,8.05,26.25,26.25,0,0,1,8,19.18v95.5H259.14V68.14H231.78v54.59Zm27.23-68.14h27.36V27.23a12.94,12.94,0,0,0-4.06-9.56,13.63,13.63,0,0,0-19.27,0,13,13,0,0,0-4,9.56Z"/><path class="cls-1" d="M340.83,122.73V68.14Q313.61,65,313.6,40.91V0h27.23V40.91a13.22,13.22,0,0,0,4,9.62,13.46,13.46,0,0,0,19.27,0,13.13,13.13,0,0,0,4.06-9.62V0h27.23V40.91q0,24.11-27.23,27.23v54.59Z"/><path class="cls-1" d="M484.33,19.25h-8.92q-1.19-9-8.51-9-4.71,0-7.11,2.28t-2.4,6.78A9.33,9.33,0,0,0,460,25.61l19,21.38q5.26,5.9,5.26,12.67v4.55A18.08,18.08,0,0,1,466.4,82.14h-9q-8.92,0-13.43-4.5t-4.5-13.43h9q-.09.93-.09,1.47a6.28,6.28,0,0,0,2.82,5.56,10.9,10.9,0,0,0,6.19,1.89q4.8,0,6.9-2.31c1.41-1.55,2.11-3.79,2.11-6.74a9.17,9.17,0,0,0-2.65-6.31l-19-21.3q-5.27-5.85-5.26-12.67V19.25a17.28,17.28,0,0,1,5.26-12.62,17.19,17.19,0,0,1,12.67-5.31h9Q483.23,1.32,484.33,19.25Z"/><path class="cls-1" d="M538.29,46.19V37.27a9.08,9.08,0,0,0-9-9h-9q-8,0-8.93,9h-9q2.06-18,17.93-18h18a17.19,17.19,0,0,1,12.65,5.33,17.4,17.4,0,0,1,5.28,12.69V82.14H538.29v-9q-1,9-9,9h-9a18,18,0,0,1-17.93-17.93v-.09a18.06,18.06,0,0,1,17.93-17.93Zm0,9h-9a8.73,8.73,0,0,0-6.36,2.63,8.53,8.53,0,0,0-2.65,6.29v.09a9,9,0,0,0,18,0Z"/><path class="cls-1" d="M610.1,19.25H628v32.2a29.58,29.58,0,0,1-9,21.62,29.43,29.43,0,0,1-21.65,9.07h-23.2V19.25h17.94V73.13h9a9,9,0,0,0,9-8.92Z"/><path class="cls-1" d="M699.84,55.2h-36v9a9,9,0,0,0,9,8.92h9q8.93,0,8.92-8.92h9q-2.1,17.92-17.93,17.93h-18A18,18,0,0,1,646,64.21V37.27a17.3,17.3,0,0,1,5.31-12.73,17.23,17.23,0,0,1,12.62-5.29h18a17.19,17.19,0,0,1,12.65,5.33,17.4,17.4,0,0,1,5.28,12.69Zm-36-9h18V37.27a9,9,0,0,0-18,0Z"/><path class="cls-1" d="M753.72,1.32h17.93V51.45a29.58,29.58,0,0,1-9,21.62A29.46,29.46,0,0,1,741,82.14h-23.2V1.32H735.7V73.13h9a9,9,0,0,0,9-8.92Z"/><path class="cls-1" d="M789.58,10.33v-9h17.93v9Zm0,71.81V19.25h17.93V82.14Z"/><path class="cls-1" d="M861.47,46.19V37.27a9.08,9.08,0,0,0-9-9h-9q-8,0-8.93,9h-9q2.06-18,17.93-18h18a17.19,17.19,0,0,1,12.65,5.33,17.41,17.41,0,0,1,5.29,12.69V82.14H861.47v-9q-1.05,9-9,9h-9a18,18,0,0,1-17.93-17.93v-.09a18.06,18.06,0,0,1,17.93-17.93Zm0,9h-9a8.73,8.73,0,0,0-6.36,2.63,8.53,8.53,0,0,0-2.65,6.29v.09a9,9,0,0,0,18,0Z"/><path class="cls-1" d="M897.34,82.14V1.32h17.93V82.14Z"/><line class="cls-2" x1="427.52" y1="122.73" x2="923.99" y2="122.73"/></g></g></svg>