<svg xmlns="http://www.w3.org/2000/svg" xmlns:xlink="http://www.w3.org/1999/xlink" viewBox="0 0 777.49 798.98"><defs><style>.cls-1,.cls-33,.cls-48{fill:none;}.cls-2,.cls-35{isolation:isolate;}.cls-3{clip-path:url(#clip-path);}.cls-4{fill:#af97c7;}.cls-15,.cls-4{mix-blend-mode:overlay;}.cls-5{opacity:0.4;}.cls-6{fill:#ac4587;}.cls-7{fill:#2e286c;}.cls-13,.cls-14,.cls-8{fill:#191123;}.cls-9{fill:#241637;}.cls-10{fill:#352a63;}.cls-11{fill:#8cc47a;}.cls-12{fill:#51267f;}.cls-13,.cls-14{mix-blend-mode:multiply;}.cls-13{opacity:0.56;}.cls-14{opacity:0.11;}.cls-15{fill:url(#linear-gradient);}.cls-16{mix-blend-mode:screen;fill:url(#radial-gradient);}.cls-17{fill:#583a8b;}.cls-18,.cls-35{fill:#fff;}.cls-19{fill:#2f2256;}.cls-20{fill:#271937;}.cls-21{fill:#1f2448;}.cls-22{fill:#ffcc07;}.cls-23{fill:#394c9b;}.cls-24{fill:#3958a4;}.cls-25{fill:#efdbbd;}.cls-26{fill:#15263e;}.cls-27{fill:#594c64;}.cls-28{fill:#e72b6a;}.cls-29{fill:#b4abd1;}.cls-30{fill:#ba286a;}.cls-31{fill:#4065ae;}.cls-32{fill:#3767af;}.cls-33{stroke:#2d498f;}.cls-33,.cls-48{stroke-linecap:round;stroke-linejoin:round;}.cls-34{clip-path:url(#clip-path-2);}.cls-35{font-size:13.95px;font-family:ArialMT, Arial;}.cls-36{clip-path:url(#clip-path-3);}.cls-37{clip-path:url(#clip-path-4);}.cls-38{clip-path:url(#clip-path-5);}.cls-39{clip-path:url(#clip-path-6);}.cls-40{clip-path:url(#clip-path-7);}.cls-41{clip-path:url(#clip-path-8);}.cls-42{clip-path:url(#clip-path-9);}.cls-43{clip-path:url(#clip-path-10);}.cls-44{fill:#f0d9b3;}.cls-45{fill:#f7d9d1;}.cls-46{fill:#efe5c9;}.cls-47{fill:#f6ecd9;}.cls-48{stroke:#cb6615;}.cls-49{fill:#70a1ab;}.cls-50{fill:#2b3945;}.cls-51{fill:#d28b96;}.cls-52{fill:#dc8a91;}.cls-53{fill:#d8666b;}.cls-54{fill:#b34c5a;}.cls-55{fill:#e26b6e;}.cls-56{fill:#d48488;}.cls-57{fill:#ce555f;}.cls-58{fill:#da696b;}.cls-59{fill:#ab4a56;}.cls-60{fill:#dd6b70;}.cls-61{fill:#ab4b57;}.cls-62{fill:#dd6c6f;}.cls-63{fill:#b14856;}.cls-64{fill:#da898e;}.cls-65{fill:#dd8a91;}.cls-66{fill:#de8186;}.cls-67{fill:#c1565f;}.cls-68{fill:#db8285;}.cls-69{fill:#e0696f;}.cls-70{fill:#df8587;}.cls-71{fill:#be5c62;}.cls-72{fill:#ad4c57;}.cls-73{fill:#dd8990;}.cls-74{fill:#e36a6d;}.cls-75{fill:#e4696d;}.cls-76{fill:#b3585b;}.cls-77{fill:#df8a8d;}.cls-78{fill:#e4686e;}.cls-79{fill:#e6686a;}.cls-80{fill:#ae4958;}.cls-81{fill:#d48289;}.cls-82{fill:#be4666;}.cls-83{fill:#d8868b;}.cls-84{fill:#d26369;}.cls-85{fill:#b34b58;}.cls-86{fill:#df8288;}.cls-87{fill:#d26068;}.cls-88{fill:#db696b;}.cls-89{fill:#b7515c;}.cls-90{fill:#d2767f;}.cls-91{fill:#df696f;}.cls-92{fill:#b24e54;}.cls-93{fill:#d46068;}.cls-94{fill:#b54f56;}.cls-95{fill:#b55554;}.cls-96{fill:#cf6063;}.cls-97{fill:#e28388;}.cls-98{fill:#e4686f;}.cls-99{fill:#e0848a;}.cls-100,.cls-101{fill:#4363ac;}.cls-101{fill-opacity:0.3;}</style><clipPath id="clip-path" transform="translate(11.07)"><rect class="cls-1" y="30.28" width="752.09" height="752.09"/></clipPath><linearGradient id="linear-gradient" x1="395.64" y1="668.55" x2="395.64" y2="479.71" gradientUnits="userSpaceOnUse"><stop offset="0" stop-color="#e5bdda"/><stop offset="0.26" stop-color="#a2829e" stop-opacity="0.66"/><stop offset="0.5" stop-color="#6c516d" stop-opacity="0.37"/><stop offset="0.7" stop-color="#442e4a" stop-opacity="0.17"/><stop offset="0.85" stop-color="#2c1834" stop-opacity="0.05"/><stop offset="0.94" stop-color="#23102c" stop-opacity="0"/></linearGradient><radialGradient id="radial-gradient" cx="1031.34" cy="788.65" r="218.67" gradientTransform="translate(-1221.47) scale(1.56 1)" gradientUnits="userSpaceOnUse"><stop offset="0" stop-color="#55b487"/><stop offset="0.13" stop-color="#4d9878" stop-opacity="0.83"/><stop offset="0.41" stop-color="#3b5e57" stop-opacity="0.48"/><stop offset="0.65" stop-color="#2e3440" stop-opacity="0.22"/><stop offset="0.84" stop-color="#261a31" stop-opacity="0.06"/><stop offset="0.94" stop-color="#23102c" stop-opacity="0"/></radialGradient><clipPath id="clip-path-2" transform="translate(11.07)"><rect class="cls-1" x="355.39" y="436.44" width="9.69" height="18.13"/></clipPath><clipPath id="clip-path-3" transform="translate(11.07)"><rect class="cls-1" x="364.69" y="436.44" width="9.69" height="18.13"/></clipPath><clipPath id="clip-path-4" transform="translate(11.07)"><rect class="cls-1" x="373.99" y="436.44" width="8.53" height="18.13"/></clipPath><clipPath id="clip-path-5" transform="translate(11.07)"><rect class="cls-1" x="382.14" y="436.44" width="9.69" height="18.13"/></clipPath><clipPath id="clip-path-6" transform="translate(11.07)"><rect class="cls-1" x="391.39" y="436.44" width="9.69" height="18.13"/></clipPath><clipPath id="clip-path-7" transform="translate(11.07)"><rect class="cls-1" x="400.69" y="436.44" width="7.37" height="18.13"/></clipPath><clipPath id="clip-path-8" transform="translate(11.07)"><rect class="cls-1" x="407.69" y="436.44" width="9.69" height="18.13"/></clipPath><clipPath id="clip-path-9" transform="translate(11.07)"><rect class="cls-1" x="416.99" y="436.44" width="9.69" height="18.13"/></clipPath><clipPath id="clip-path-10" transform="translate(11.07)"><rect class="cls-1" x="426.29" y="436.44" width="9.69" height="18.13"/></clipPath></defs><g class="cls-2"><g id="Capa_2" data-name="Capa 2"><g id="Capa_1-2" data-name="Capa 1"><g class="cls-3"><circle class="cls-4" cx="387.25" cy="373.57" r="260.56" transform="translate(-139.66 383.24) rotate(-45)"/><circle class="cls-4" cx="381.23" cy="371.5" r="165.91" transform="translate(-139.96 378.38) rotate(-45)"/><g class="cls-5"><rect class="cls-6" x="87.94" y="448.46" width="121.91" height="137.8"/><path class="cls-7" d="M96.54,345.47H-7.52V320.94H96.54A12.26,12.26,0,0,1,108.8,333.2h0A12.26,12.26,0,0,1,96.54,345.47Z" transform="translate(11.07)"/><polygon class="cls-7" points="0 14.65 0 125.04 63.71 125.04 63.71 72.9 253.24 72.9 253.24 14.65 0 14.65"/><polygon class="cls-7" points="777.49 125.04 777.49 14.65 525.24 14.65 525.24 72.9 714.77 72.9 714.77 125.04 777.49 125.04"/><path class="cls-7" d="M138,380.89H-7.52V361H138a9.94,9.94,0,0,1,9.94,9.94h0A9.94,9.94,0,0,1,138,380.89Z" transform="translate(11.07)"/><path class="cls-7" d="M659.56,345.47H763.62V320.94H659.56A12.26,12.26,0,0,0,647.3,333.2h0A12.26,12.26,0,0,0,659.56,345.47Z" transform="translate(11.07)"/><path class="cls-7" d="M618.13,380.89H763.62V361H618.13a9.94,9.94,0,0,0-9.94,9.94h0A9.94,9.94,0,0,0,618.13,380.89Z" transform="translate(11.07)"/><rect class="cls-8" x="101.76" y="464.08" width="94.27" height="106.56"/><rect class="cls-9" x="116.72" y="475.47" width="64.36" height="33.1"/><rect class="cls-10" x="122.35" y="481.36" width="53.1" height="22.6"/><rect class="cls-6" x="101.76" y="508.63" width="94.27" height="20.75"/><path class="cls-9" d="M201.29,466H73.19a19.83,19.83,0,0,1-19.83-19.83h0a19.83,19.83,0,0,1,19.83-19.82h128.1a19.82,19.82,0,0,1,19.82,19.82h0A19.82,19.82,0,0,1,201.29,466Z" transform="translate(11.07)"/><path class="cls-11" d="M188.49,435.66a5.13,5.13,0,1,1-5.12-5.13A5.12,5.12,0,0,1,188.49,435.66Z" transform="translate(11.07)"/><path class="cls-11" d="M143,519a5.12,5.12,0,1,1-5.12-5.13A5.12,5.12,0,0,1,143,519Z" transform="translate(11.07)"/><circle class="cls-11" cx="109.59" cy="435.66" r="5.12"/><path class="cls-8" d="M125.81,492.66a3.93,3.93,0,1,1-3.93-3.92A3.93,3.93,0,0,1,125.81,492.66Z" transform="translate(11.07)"/><path class="cls-8" d="M141.76,492.66a3.93,3.93,0,1,1-3.93-3.92A3.93,3.93,0,0,1,141.76,492.66Z" transform="translate(11.07)"/><path class="cls-8" d="M157.71,492.66a3.93,3.93,0,1,1-3.92-3.92A3.93,3.93,0,0,1,157.71,492.66Z" transform="translate(11.07)"/><rect class="cls-9" x="116.72" y="537.11" width="64.36" height="33.1"/><rect class="cls-10" x="122.35" y="543" width="53.1" height="22.6"/><path class="cls-8" d="M125.81,554.3a3.93,3.93,0,1,1-3.93-3.93A3.93,3.93,0,0,1,125.81,554.3Z" transform="translate(11.07)"/><path class="cls-8" d="M141.76,554.3a3.93,3.93,0,1,1-3.93-3.93A3.93,3.93,0,0,1,141.76,554.3Z" transform="translate(11.07)"/><path class="cls-8" d="M157.71,554.3a3.93,3.93,0,1,1-3.92-3.93A3.93,3.93,0,0,1,157.71,554.3Z" transform="translate(11.07)"/><path class="cls-4" d="M197.71,445.9H149.86V426.36H130.11V445.9H73.8a6.11,6.11,0,1,0,0,12.22h56.31V466H111.28V586.25H165.4V466H149.86v-7.89h47.85a6.11,6.11,0,0,0,0-12.22Z" transform="translate(11.07)"/></g><g class="cls-5"><rect class="cls-6" x="588.98" y="448.46" width="121.91" height="137.8"/><rect class="cls-8" x="602.8" y="464.08" width="94.27" height="106.56"/><rect class="cls-9" x="617.75" y="475.47" width="64.36" height="33.1"/><rect class="cls-10" x="623.38" y="481.36" width="53.1" height="22.6"/><rect class="cls-6" x="602.8" y="508.63" width="94.27" height="20.75"/><path class="cls-9" d="M702.33,466H574.22a19.82,19.82,0,0,1-19.82-19.83h0a19.82,19.82,0,0,1,19.82-19.82H702.33a19.83,19.83,0,0,1,19.82,19.82h0A19.83,19.83,0,0,1,702.33,466Z" transform="translate(11.07)"/><path class="cls-8" d="M626.84,492.66a3.93,3.93,0,1,1-3.93-3.92A3.93,3.93,0,0,1,626.84,492.66Z" transform="translate(11.07)"/><path class="cls-8" d="M642.79,492.66a3.93,3.93,0,1,1-3.93-3.92A3.93,3.93,0,0,1,642.79,492.66Z" transform="translate(11.07)"/><path class="cls-8" d="M658.75,492.66a3.93,3.93,0,1,1-3.93-3.92A3.93,3.93,0,0,1,658.75,492.66Z" transform="translate(11.07)"/><rect class="cls-9" x="617.75" y="537.11" width="64.36" height="33.1"/><rect class="cls-10" x="623.38" y="543" width="53.1" height="22.6"/><path class="cls-8" d="M626.84,554.3a3.93,3.93,0,1,1-3.93-3.93A3.93,3.93,0,0,1,626.84,554.3Z" transform="translate(11.07)"/><path class="cls-8" d="M642.79,554.3a3.93,3.93,0,1,1-3.93-3.93A3.93,3.93,0,0,1,642.79,554.3Z" transform="translate(11.07)"/><path class="cls-8" d="M658.75,554.3a3.93,3.93,0,1,1-3.93-3.93A3.93,3.93,0,0,1,658.75,554.3Z" transform="translate(11.07)"/><path class="cls-4" d="M698.74,445.9H650.89V426.36H631.14V445.9H574.83a6.11,6.11,0,0,0,0,12.22h56.31V466H612.31V586.25h54.13V466H650.89v-7.89h47.85a6.11,6.11,0,0,0,0-12.22Z" transform="translate(11.07)"/></g><ellipse class="cls-12" cx="406.33" cy="699.22" rx="304.56" ry="54.74"/><ellipse class="cls-8" cx="399.42" cy="690.19" rx="262.54" ry="39.57"/><ellipse class="cls-12" cx="399.42" cy="686.14" rx="209.54" ry="27.53"/><ellipse class="cls-13" cx="399.42" cy="680.86" rx="166.05" ry="17.48"/><ellipse class="cls-14" cx="215.22" cy="404.48" rx="23.98" ry="18.68"/><ellipse class="cls-14" cx="586.08" cy="394.74" rx="23.98" ry="18.68"/><path class="cls-4" d="M566.09,799A178.14,178.14,0,0,0,214,799Z" transform="translate(11.07)"/><polygon class="cls-15" points="548.8 798.98 747.61 444.91 43.66 450.03 254.41 798.98 548.8 798.98"/><path class="cls-16" d="M727.78,799c.25-3.43.39-6.87.39-10.33C728.17,667.88,575.47,570,387.11,570s-341,97.9-341,218.67c0,3.46.14,6.9.39,10.33Z" transform="translate(11.07)"/></g><g id="Layer9_0_FILL" data-name="Layer9 0 FILL"><path class="cls-17" d="M587.63,597.77a11.25,11.25,0,0,0-7.5,5.25,22.53,22.53,0,0,0-3.5,9.2c-.34,2.14-.7,5.37-1.11,9.7a25.51,25.51,0,0,1-2.7,9.16,19.29,19.29,0,0,1-10.14,8.75,30.7,30.7,0,0,1-13.91,2,67.22,67.22,0,0,1-13.59-2.71q-4.45-1.29-13.41-4-16.89-4.39-27.2,1.35a66.21,66.21,0,0,0-8.69,6.86q-5.25,4.59-9.06,6-6.65,2.45-15.64-.66a71.36,71.36,0,0,1-7.8-3.25c-1.74-.79-4.29-2-7.66-3.59a89.51,89.51,0,0,0-28.84-7.31,133.67,133.67,0,0,0-30,1,246.68,246.68,0,0,0-29.31,6.36q-4.1,1.09-28.8,8.5a30,30,0,0,1-5.45,1.19,8.77,8.77,0,0,1-5.25-1,7.8,7.8,0,0,1-3.05-3.44,21.38,21.38,0,0,1-1.5-4.75c-.66-3.07-1-4.77-1.15-5.11a14.43,14.43,0,0,0-2.05-4.64q-3.24-4.56-10.1-4.11a23.75,23.75,0,0,0-11.6,4.11q-1.55,1-5,3.55-3.24,2.34-5.05,3.45-5.94,3.79-11,3.94c-3.9.11-8.13-1.35-12.7-4.35-1.36-.89-3.3-2.29-5.8-4.2s-4.5-3.41-5.7-4.25a48.1,48.1,0,0,0-44.94-4.3,8.55,8.55,0,0,0-.86.35q-2.69,29.91,37.4,51.31,59.1,17.7,168.35,11.89,172.41-1.89,182.2-38.5,12.86-31.4,2.3-53.8l-.19.1M407.38,684.22q-197.76-1.5-202.7-52Q243.58,676.47,407.38,684.22Z" transform="translate(11.07)"/><path class="cls-18" d="M204.68,632.22q4.94,50.5,202.7,52Q243.58,676.48,204.68,632.22Z" transform="translate(11.07)"/><path class="cls-19" d="M531.82,565.22a26.3,26.3,0,0,0,4.4,7.7q4.81,6.17,5.35,7a17.46,17.46,0,0,1,3.11,7.85l-41.21-15.35a153.78,153.78,0,0,1,20.46,41.46,267.26,267.26,0,0,1-54.86-31.71,48.58,48.58,0,0,1,5.45,15.71,46.43,46.43,0,0,1,0,16.5,140.3,140.3,0,0,1-37.84-29.55,375.6,375.6,0,0,1,7.14,38.09,55.42,55.42,0,0,1-28.8-34.7l-5.2,30.61a33.82,33.82,0,0,1-9.34-15.36,32.93,32.93,0,0,1-.46-17.89q-12.3,9.79-44.65,35.8a81.68,81.68,0,0,1,12.31-20.25,102.53,102.53,0,0,1,17.19-16.55l-92.1,38.34a112.85,112.85,0,0,1,58.46-43.15,490,490,0,0,0-96.71,31.4,35.79,35.79,0,0,1,9-13.54,72.87,72.87,0,0,1,13.41-9.86A142.67,142.67,0,0,1,304.87,575a146.45,146.45,0,0,1,30.1-6.5,332.21,332.21,0,0,0-118.1,27.45,14.65,14.65,0,0,1,.85-7.79l-1.79-1.66a69,69,0,0,0-18.16,38.41c-.06.46-.13,1-.2,1.45l.86.09a48.1,48.1,0,0,1,44.94,4.3c1.2.84,3.1,2.25,5.7,4.25s4.44,3.31,5.8,4.2c4.57,3,8.8,4.46,12.7,4.35q5.06-.15,11-3.94,1.81-1.11,5.05-3.45,3.45-2.57,5-3.55a23.75,23.75,0,0,1,11.6-4.11q6.86-.45,10.1,4.11a14.43,14.43,0,0,1,2.05,4.64c.1.34.49,2,1.15,5.11a21.38,21.38,0,0,0,1.5,4.75,7.8,7.8,0,0,0,3.05,3.44,8.77,8.77,0,0,0,5.25,1,30,30,0,0,0,5.45-1.19q24.71-7.41,28.8-8.5a246.68,246.68,0,0,1,29.31-6.36,133.67,133.67,0,0,1,30-1,89.51,89.51,0,0,1,28.84,7.31c3.37,1.59,5.92,2.8,7.66,3.59a71.36,71.36,0,0,0,7.8,3.25q9,3.11,15.64.66,3.81-1.37,9.06-6a66.21,66.21,0,0,1,8.69-6.86q10.31-5.74,27.2-1.35,9,2.7,13.41,4a67.22,67.22,0,0,0,13.59,2.71,30.7,30.7,0,0,0,13.91-2,19.29,19.29,0,0,0,10.14-8.75,25.51,25.51,0,0,0,2.7-9.16c.41-4.33.77-7.56,1.11-9.7a22.53,22.53,0,0,1,3.5-9.2,11.25,11.25,0,0,1,7.5-5.25l.19-.1q-9.84-20.83-40-33.9-8-3.45-16.1-6.5A11.29,11.29,0,0,0,531.82,565.22Z" transform="translate(11.07)"/><path class="cls-20" d="M536.22,572.92a26.3,26.3,0,0,1-4.4-7.7,11.29,11.29,0,0,1-.1-8q-99.35-37.59-214-15.94-68,12.64-97.65,40.89l0,0,.91.9a13.63,13.63,0,0,0-3.21,5,14.65,14.65,0,0,0-.85,7.79A332.21,332.21,0,0,1,335,568.47a146.45,146.45,0,0,0-30.1,6.5,142.67,142.67,0,0,0-27.94,12.8,72.87,72.87,0,0,0-13.41,9.86,35.79,35.79,0,0,0-9,13.54,490,490,0,0,1,96.71-31.4,112.85,112.85,0,0,0-58.46,43.15l92.1-38.34a102.53,102.53,0,0,0-17.19,16.55,81.68,81.68,0,0,0-12.31,20.25q32.35-26,44.65-35.8a32.93,32.93,0,0,0,.46,17.89,33.82,33.82,0,0,0,9.34,15.36l5.2-30.61a55.42,55.42,0,0,0,28.8,34.7,375.6,375.6,0,0,0-7.14-38.09,140.3,140.3,0,0,0,37.84,29.55,46.43,46.43,0,0,0,0-16.5,48.58,48.58,0,0,0-5.45-15.71,267.26,267.26,0,0,0,54.86,31.71,153.78,153.78,0,0,0-20.46-41.46l41.21,15.35a17.46,17.46,0,0,0-3.11-7.85Q541,579.08,536.22,572.92Z" transform="translate(11.07)"/></g><g id="Layer8_0_FILL" data-name="Layer8 0 FILL"><path class="cls-21" d="M507.43,73.88l1.79,7.34q3.36,22.65-27.25,42.66Q462.68,109,443.38,105.57a59.62,59.62,0,0,0-37.81,7.25q10.35-4.44,18.31-.35a21.65,21.65,0,0,1,3.5,2.35l1.84,2.9a128,128,0,0,0-50.84.3,141.64,141.64,0,0,0-14.25,3.61l26,11q-18.7.11-38.91,8.35-6,2.5-12.25,5.7c-2.06,1.07-4.13,2.2-6.2,3.41a150.94,150.94,0,0,0,32.5,8.79q-9.94,2.51-19,5.71c-2.76,1-5.5,2-8.2,3l-.55.25c-2.66,1.06-5.26,2.18-7.79,3.34q-5.71,2.55-11,5.41a105.91,105.91,0,0,0,20.91,7.14l-3.36,7.7,8.7-3-9.5,14.05q-3.15,4.65,0,6a4.84,4.84,0,0,0,5.75-3.35l4.16-8.15q3.09-2.19,3.59,4.35l-7.79,17.5q-2.56,6.21,1.75,3.6l6.95-7.6a3.06,3.06,0,0,1,1.75-.35c.73.14.86,1,.39,2.6-.16.57-.4,1.24-.7,2L338,234a93.28,93.28,0,0,0,13.86-3.8q-5.5,6-2.36,14l7.25-8.71q5.87-5,5.05,3.4c-.36.7-.7,1.41-1,2.1q-3.9,9.26.65,12.21a8,8,0,0,0-.25.94v24.5q-9.54-4.63-16,1.9-5.65,8.36.64,16.45,7.71,5.91,15.4,0v13.75q4.9,60.85,104.3,66.3v5.2l-6.59,1.6q-2.91-1.09-3.55.81l-11.25,6.55q-20.06,12.69-27.95,22.45T408,423.17c-.13-.1-.21-.11-.25,0l-.09.09v0l3.75,2.65-16.2,20.75q-2.06,16,15,14.5l29.34-10,.86,2.55V470H444l-6,11.61q-42.49-19.75-63,0-8.59,11.75-1.55,22.44l9.85-.75q31.67,18.86,61.36,22.65A126.38,126.38,0,0,0,463.43,527l-11.71,4.2c-2.5-2.53-4.91-3.91-7.25-4.15s-4.58.69-6.75,2.75q-4.39,9.4-17.54,16.4-12.71,17.31,10.64,21.46,14.51-3,15.2-16-.64-8,7.25-12.41l33.16-4q29.69,26.42,38.14,7.1,5-9.24-10.75-11.69a64.92,64.92,0,0,0-7.14-.7l8.5-1.55a61.35,61.35,0,0,0,33.54-1.11l5.55,1.41a29.86,29.86,0,0,0,3.36-3.5q10.14-12.11,5-29.61-4-13.65-52.36-17.1L507,470V458.63l.41-.8q12.69,7.14,30.34,8.75,10.65.39,10.45-12.25-6-17.55-11.45-23.41l-.45-.45,2.45-1.3q-12.64-22.29-26.25-31.45a157.25,157.25,0,0,0-23.64-13.64c-.77-1.77-1.86-2-3.25-.75L479.68,382v-5h4.45q92.08-2.64,93.14-79.5,12.9,5.2,16.8-3.3,2.85-11.49-5.8-15.4c-4.59-1.83-8.38-1.63-11.34.61a139.7,139.7,0,0,0-2.55-30.46q3.64-1.14,3-7.2a8.28,8.28,0,0,1-.5-1.3s0,0,0,0q-4.11-10.45-1.5-11.91,6,.9,11.14,10.55,3.26-5.15-1-13.6a43.31,43.31,0,0,0,12.75,3.25L585.32,214A10.49,10.49,0,0,1,584,211a2.12,2.12,0,0,1,1.3-2.65,61.07,61.07,0,0,1,6.15,7q5.85,6.36,4.46,0c-.34-.66-.67-1.29-1-1.89q-8.25-15.7-6.91-20.56c.14-2.26,1.35-2.31,3.66-.15l4.14,8.21q4.3,5.15,6.81,1.44-2.42-8.15-13-18.9l10.5,2.9q-2.91-9.45-12-17.8l19.7-9-26.81-6.69c.3-.24.61-.49.9-.75l.46-.31c2.69-1.7,5.48-3.26,8.34-4.69a76.23,76.23,0,0,1,8.05-3.56A101,101,0,0,1,610,140l-26.8-6.84c3.11-1.31,6.25-2.51,9.46-3.61q-36.66-11.34-50.91-10c.91-4.36,1-7.53.36-9.5l-8.36,3.8q8.51-12.24,6.75-19.3-3.79-9.75-10.14-9.75,9.69,12.81-14.91,32.55,10.66-14.55,5.5-29.1a43.53,43.53,0,0,0-9-14.34q-3.79-3.21-4.59,0m70,128.19.89-2.6c.11,1.3-.2,2.17-.89,2.6M519.77,439.13l1.75,5.5-14.7-4.3.45-15.06,10.3,15,2.2-1.14m-39.7.95-.05-.2h.45l-.4.2M374.27,189.42c.41-.33.82-.68,1.25-1a2.76,2.76,0,0,1,.25-.21c-.13.81-.25,1.62-.34,2.46l-1.16-1.21m65.36,230.71v16.29l-17.45,2.71,2.64-3.66,2.4,1.7Z" transform="translate(11.07)"/></g><g id="Layer7_0_FILL" data-name="Layer7 0 FILL"><path class="cls-22" d="M447.22,591.88A85,85,0,0,0,438,591l-26.15,6.86q38.35,34.09,49.25,9.19,6.45-11.94-13.85-15.14m-80.2.79q-4.84-4.89-9.34-5.34t-8.75,3.55q-5.65,12.14-22.66,21.2Q309.88,634.37,340,639.72,358.73,636,359.68,619q-.85-10.24,9.34-16Z" transform="translate(11.07)"/><path class="cls-23" d="M454.18,548.72c-1.1.2-2.19.42-3.25.66l8.25,10.25,6.75-2.3.59.39-12.34-9m-122.11.66,11.25-5.11q-12.24.21-22.75.9l11.5,4.21m-53.39,7.25,14.94-1.25-13.19-4.16A48.66,48.66,0,0,0,266,557.63l12.71-1m220.79,32.75a46.48,46.48,0,0,0,4.3-4.5l-6.25-4.55-19.95,3.59,14.7,3.66Z" transform="translate(11.07)"/><path class="cls-24" d="M393.72,571.33l-.25.64,15.3,5.66,50.41-18-8.25-10.25q-29.31,6.14-52,18.89c-1.77,1-3.5,2-5.21,3.06m-50.4-27.06-11.25,5.11,54.75,20.14.2-.55-8.95-5.05-34.75-19.65m-49.7,11.11-14.94,1.25q40.89,24.35,79.2,29.29a167.26,167.26,0,0,0,24.25,1.3l5.75-2.05-94.26-29.79m198.65,32.2-14.7-3.66L449,589Q470,594.38,492.27,587.58Z" transform="translate(11.07)"/><path class="cls-25" d="M372.22,471.92c-.36-.1-.81.19-1.34.85a1.31,1.31,0,0,0-.16.36,9.28,9.28,0,0,1,1.5-1.21m-58.9,30.35,37.95-12.89,9.11-3.11,13.84,7q12.25,3.71,12-5.69h0L374,480.77q-7.2-4-3.3-7.64a1.31,1.31,0,0,1,.16-.36c.53-.66,1-.95,1.34-.85.54-.33,1.14-.66,1.8-1l6.61,1.25,2.55.5q4.89,1.31,5.54-3.75c-.39-.36-.79-.73-1.2-1.09q-12.79-11-27.5,1.09l-8.64,1.41-22.51,3.5-17.55,2.75,17.55-2.75,3.4-4.75-17.4-12.36L294,483.58q-2.64,20.64,19.35,18.69m-32.89,49,13.19,4.16,94.26,29.79,20.89-7.54L393.47,572l-6.65-2.45-54.75-20.14-11.5-4.21q-25.18,1.61-40.14,6.05m104.39-157.7v13.4a21.53,21.53,0,0,0,4,1.55,18.87,18.87,0,0,0,12-.84q1.11-.47,2.25-1.05V393.52q-8.64-11.08-18.25,0m92.75,190.4,19.95-3.59-31-22.61-.59-.39-6.75,2.3-50.41,18-20.89,7.54-5.75,2.05L367,592.67,369,603l42.8-5.19L438,591l11-2,28.6-5.1m14.06-90.5q-7.75-22.65-14.81-30.25l-.55-.54-21.39,11.2,2.3,7.05,16.25,4.7-16.25-4.7-19-5.55-7.11-2.06-17.85-7.69-16,3.84q-.2,5.2,6.35,5.35h10.31q5,1.8-1,6.31l-12.5,5.84a9.38,9.38,0,0,0,0,1.5q.39,7.9,11.84,5.85l13.71-5.69A69.66,69.66,0,0,0,439,498q16.35,9.21,39.16,11.3Q491.87,509.78,491.63,493.42Z" transform="translate(11.07)"/><path class="cls-26" d="M381.22,474a6.43,6.43,0,0,0-.59-1.85L374,470.92c-.66.34-1.26.67-1.8,1a9.28,9.28,0,0,0-1.5,1.21,2.92,2.92,0,0,0-.34,2.64,3.69,3.69,0,0,0,1.64,1.15,14.65,14.65,0,0,0,2.75,1,20.84,20.84,0,0,0,2.5.1l1,0,.36-.05a5.42,5.42,0,0,0,1.39-.75,6.42,6.42,0,0,0,1-1.4,2.94,2.94,0,0,0,.2-1.75m20.8,3.15a2.09,2.09,0,0,0,.75,1.75l.86.25,2.5.35c1.76.27,2.76.4,3,.4a6.24,6.24,0,0,0,1.5-.15,1.9,1.9,0,0,0,.89-.5,2.62,2.62,0,0,0,.75-1.1,3.19,3.19,0,0,0,.36-1.5,1.77,1.77,0,0,0-.16-.84,1,1,0,0,0-.59-.41,1,1,0,0,1,.59.41l1.41-1.06h-9.75a2.59,2.59,0,0,1-.5.25,4.07,4.07,0,0,0-1.11.75A1.92,1.92,0,0,0,402,477.17Z" transform="translate(11.07)"/><path class="cls-27" d="M401,482.27l1-.1-1-.09q-10.7-1.45-16.2-2.31a22,22,0,0,1-6.5-1.8l-1,0a20.84,20.84,0,0,1-2.5-.1,14.65,14.65,0,0,1-2.75-1,3.69,3.69,0,0,1-1.64-1.15,2.92,2.92,0,0,1,.34-2.64q-3.9,3.64,3.3,7.64l12.16,6.81a16.53,16.53,0,0,1,7.5-4.16A36.93,36.93,0,0,1,401,482.27Z" transform="translate(11.07)"/><path class="cls-28" d="M412.22,494.27q-11.45,2.06-11.84-5.85-8.2,1.71-14.16-.84.25,9.39-12,5.69l-13.84-7-9.11,3.11,1.11,3.25v21h86.05V499l.54-1a69.66,69.66,0,0,1-13-9.39l-13.71,5.69m64-31.64,3.16-1.71q-16.37-28.8-33.91-40.59T415,402.67a64,64,0,0,1-13,7.75q-6.45,2.76-11.3,2c-1-.29-2-.6-3-.9a55.62,55.62,0,0,1-16-8.14l-14.5,8.39q-25.94,16.46-36.15,29t-10.55,12.4c-.2-.1-.31-.11-.34,0l-.16.14.05.06,4.8,3.39,17.4,12.36.6.44,2.5,1.75,16-22v21.06l8.64-1.41q14.72-12.09,27.5-1.09c3-1.24,6.27-.7,9.7,1.59l16-3.84,17.85,7.69,7.11,2.06.59-19.41,13.3,19.35,2.81-1.44Z" transform="translate(11.07)"/><path class="cls-29" d="M402.77,478.92a2.09,2.09,0,0,1-.75-1.75,1.92,1.92,0,0,1,.5-1.4,4.07,4.07,0,0,1,1.11-.75l-.06-.25q-6.54-.15-6.35-5.35c-3.43-2.29-6.66-2.83-9.7-1.59.41.36.81.73,1.2,1.09q-.64,5.06-5.54,3.75l-2.55-.5a6.43,6.43,0,0,1,.59,1.85,2.94,2.94,0,0,1-.2,1.75,6.42,6.42,0,0,1-1,1.4,5.42,5.42,0,0,1-1.39.75l-.36.05a22,22,0,0,0,6.5,1.8q5.5.86,16.2,2.31l1,.09-1,.1a36.93,36.93,0,0,0-7.29,1.15,16.53,16.53,0,0,0-7.5,4.16h0q6,2.55,14.16.84a9.38,9.38,0,0,1,0-1.5l12.5-5.84q6-4.5,1-6.31l-1.41,1.06a1.77,1.77,0,0,1,.16.84,3.19,3.19,0,0,1-.36,1.5,2.62,2.62,0,0,1-.75,1.1,1.9,1.9,0,0,1-.89.5,6.24,6.24,0,0,1-1.5.15c-.24,0-1.24-.13-3-.4l-2.5-.35Z" transform="translate(11.07)"/><path class="cls-30" d="M403.07,406.58l7.7-4.86-7.7-1.7v6.56m-18.25-6.36-8.5,2.11,8.5,4.59Z" transform="translate(11.07)"/><path class="cls-31" d="M376.32,402.33q-3.75-1.45-4.6,1.05a55.62,55.62,0,0,0,16,8.14c1,.3,2,.61,3,.9q4.86.75,11.3-2a64,64,0,0,0,13-7.75q-1.44-3.39-4.2-.95l-7.7,4.86q-1.14.59-2.25,1.05a18.87,18.87,0,0,1-12,.84,21.53,21.53,0,0,1-4-1.55Z" transform="translate(11.07)"/><path class="cls-32" d="M497.52,580.33l6.25,4.55q13.11-15.66,6.55-38.25-5.08-17.65-67.64-22.11l-4.25-10.89H357l-7.7,15q-54.9-25.5-81.35,0-11.14,15.14-2,29a48.66,48.66,0,0,1,14.46-6.41q14.94-4.44,40.14-6.05,10.5-.69,22.75-.9l-31-11,31,11,34.75,19.65L367.38,550l10.69,13.95L387,569v0l-.2.55,6.65,2.45.25-.64c1.71-1.07,3.44-2.09,5.21-3.06q22.69-12.75,52-18.89c1.06-.24,2.15-.46,3.25-.66q7.1-1.4,14.59-2.39-7.5,1-14.59,2.39l12.34,9,31,22.61M416.07,549l-18.35,17v0Z" transform="translate(11.07)"/></g><path id="Layer7_0_1_STROKES" data-name="Layer7 0 1 STROKES" class="cls-33" d="M439,498q16.35,9.21,39.16,11.3,13.74.51,13.5-15.85-7.75-22.65-14.81-30.25l-.55-.54-21.39,11.2,2.3,7.05,16.25,4.7M415,402.67q13,5.81,30.55,17.66t33.91,40.59l-3.16,1.71m16,125,7.2,1.8a46.48,46.48,0,0,0,4.3-4.5l-6.25-4.55-19.95,3.59,14.7,3.66Q470,594.38,449,589l-11,2a85,85,0,0,1,9.25.91q20.31,3.2,13.85,15.14-10.89,24.91-49.25-9.19L369,603q-10.2,5.76-9.34,16-1,17-19.66,20.7-30.15-5.34-13.75-27.64,17-9.06,22.66-21.2,4.19-4,8.75-3.55t9.34,5.34l15.11-5.45a167.26,167.26,0,0,1-24.25-1.3q-38.31-4.93-79.2-29.29l-12.71,1q-9.15-13.86,2-29,26.46-25.5,81.35,0l7.7-15h-4.64v-21m-1.11-3.25-37.95,12.89q-22,2-19.35-18.69l20.9-26.86-4.8-3.39-.05-.06.16-.14c0-.07.14-.06.34,0s3.72-4,10.55-12.4,18.86-18,36.15-29l14.5-8.39q.86-2.5,4.6-1.05l8.5-2.11v-6.7q9.6-11.08,18.25,0V400l7.7,1.7q2.76-2.45,4.2.95a64,64,0,0,1-13,7.75q-6.45,2.76-11.3,2c-1-.29-2-.6-3-.9a55.62,55.62,0,0,1-16-8.14m132,181.5q13.11-15.66,6.55-38.25-5.08-17.65-67.64-22.11l-4.25-10.89H357m53.75-111.91-7.7,4.86V400m0,6.56q-1.14.59-2.25,1.05a18.87,18.87,0,0,1-12,.84,21.53,21.53,0,0,1-4-1.55l-8.5-4.59m-97.64,154.3,14.94-1.25-13.19-4.16A48.66,48.66,0,0,0,266,557.63m137.6-82.86h10.31q5,1.8-1,6.31l-12.5,5.84a9.38,9.38,0,0,0,0,1.5q.39,7.9,11.84,5.85l13.71-5.69A69.66,69.66,0,0,0,439,498m-.54,1v14.66M403.63,475a4.07,4.07,0,0,0-1.11.75,1.92,1.92,0,0,0-.5,1.4,2.09,2.09,0,0,0,.75,1.75l.86.25,2.5.35c1.76.27,2.76.4,3,.4a6.24,6.24,0,0,0,1.5-.15,1.9,1.9,0,0,0,.89-.5,2.62,2.62,0,0,0,.75-1.1,3.19,3.19,0,0,0,.36-1.5,1.77,1.77,0,0,0-.16-.84,1,1,0,0,0-.59-.41m-14.66-6q-.2,5.2,6.35,5.35m.56,0a2.59,2.59,0,0,1-.5.25m-6.41-5.6,16-3.84,17.85,7.69,7.11,2.06.59-19.41,13.3,19.35,2.81-1.44M378.27,478a22,22,0,0,0,6.5,1.8q5.5.86,16.2,2.31l1,.09-1,.1a36.93,36.93,0,0,0-7.29,1.15,16.53,16.53,0,0,0-7.5,4.16h0q6,2.55,14.16.84m37.8-13.09,19,5.55m-128.31-7.05,22.51-3.5V449.27l-16,22-2.5-1.75Zm-14-17.11,17.4,12.36.6.44m54.65-1.69c.41.36.81.73,1.2,1.09q-.64,5.06-5.54,3.75l-2.55-.5a6.43,6.43,0,0,1,.59,1.85,2.94,2.94,0,0,1-.2,1.75,6.42,6.42,0,0,1-1,1.4,5.42,5.42,0,0,1-1.39.75l-.36.05-1,0a20.84,20.84,0,0,1-2.5-.1,14.65,14.65,0,0,1-2.75-1,3.69,3.69,0,0,1-1.64-1.15,2.92,2.92,0,0,1,.34-2.64q-3.9,3.64,3.3,7.64l12.16,6.81m-5.55-15.41L374,470.92c-.66.34-1.26.67-1.8,1a9.28,9.28,0,0,0-1.5,1.21,1.31,1.31,0,0,1,.16-.36c.53-.66,1-.95,1.34-.85m14,15.66q.25,9.39-12,5.69l-13.84-7-9.11,3.11m.11-19.05,8.64-1.41q14.72-12.09,27.5-1.09c3-1.24,6.27-.7,9.7,1.59m-53.9,74.85-11.25,5.11,54.75,20.14m.2-.55-8.95-5.05-34.75-19.65-31-11m31,11q-12.24.21-22.75.9l11.5,4.21m61.65,22c1.71-1.07,3.44-2.09,5.21-3.06q22.69-12.75,52-18.89c1.06-.24,2.15-.46,3.25-.66q7.1-1.4,14.59-2.39m-81.95,23.19,6.65,2.45,15.3,5.66,50.41-18-8.25-10.25M367,592.67,369,603m13.11-15.8,5.75-2.05-94.26-29.79m84.45,8.54L367.38,550M387,569V546m72.16,13.66,6.75-2.3m-11.75-8.61,12.34,9M438,591l-26.15,6.86M416.07,549l-18.35,17V546m-9.84,39.2,20.89-7.54m-88.2-32.46q-25.18,1.61-40.14,6.05m30.89-74.64,17.55-2.75m55.95-73.61v6.7m92.75,177L449,589m17.55-31.3,31,22.61" transform="translate(11.07)"/><g class="cls-34"><g class="cls-2"><text class="cls-35" transform="translate(366.64 450.72)">H</text></g></g><g class="cls-36"><g class="cls-2"><text class="cls-35" transform="translate(375.94 450.72)">a</text></g></g><g class="cls-37"><g class="cls-2"><text class="cls-35" transform="translate(385.24 450.72)">c</text></g></g><g class="cls-38"><g class="cls-2"><text class="cls-35" transform="translate(393.39 450.72)">k</text></g></g><g class="cls-39"><g class="cls-2"><text class="cls-35" transform="translate(402.64 450.72)">a</text></g></g><g class="cls-40"><g class="cls-2"><text class="cls-35" transform="translate(411.94 450.72)">t</text></g></g><g class="cls-41"><g class="cls-2"><text class="cls-35" transform="translate(418.94 450.72)">h</text></g></g><g class="cls-42"><g class="cls-2"><text class="cls-35" transform="translate(428.24 450.72)">o</text></g></g><g class="cls-43"><g class="cls-2"><text class="cls-35" transform="translate(437.54 450.72)">n</text></g></g><g id="Layer5_0_FILL" data-name="Layer5 0 FILL"><path class="cls-44" d="M250.12,290.17v-11.9h-8.3l-3.89,8.61,3.89-8.61h8.3V266.42q-12.35-6-20.69,2.46-7.31,10.78.79,21.29,10,7.6,19.9,0M537,279.77h0l3.41,5.45L537,279.77h-8c.17,3.77.24,7.46.21,11.05q16.64,6.75,21.64-4.25,3.7-14.85-7.44-19.9-9-3.5-14.7.8c0,1.77-.09,3.55-.16,5.35q.3,3.56.45,6.95Z" transform="translate(11.07)"/><path class="cls-25" d="M529,279.77q-.15-3.39-.45-6.95c.07-1.8.12-3.58.16-5.35Q531,139.32,389.32,141.17q-114.45-8.29-139.2,93.6v73.11q6.3,78.6,134.7,85.64h24.06q118.89-3.45,120.3-102.7c0-3.59,0-7.28-.21-11.05m-24.15,36.86q0,8.19-9.14,13.95t-22.05,5.8q-12.92,0-22.06-5.8t-9.14-13.95q0-8.2,9.14-14t22.06-5.75q12.89,0,22.05,5.75t9.14,14m-105-42q-5.6,14.1,2.7,24.35a15.8,15.8,0,0,1,3.7,4.45q2.85,5.4-3.7,9.91-14.29,9-26.75,0-5.79-4-3.64-8.75a15.39,15.39,0,0,1,4.19-5.11q8.61-10.09,1.11-24.3,10.5-8.7,22.39-.55m-56.25,42q0,8.19-9.14,13.95t-22.06,5.8q-12.89,0-22.05-5.8t-9.14-13.95q0-8.2,9.14-14t22.05-5.75q12.9,0,22.06,5.75t9.14,14m23.06,24.89a72.42,72.42,0,0,0,47.5,0,72.42,72.42,0,0,1-47.5,0m14.64,11.06q9.25,4.1,19.36,0Q390.52,356.68,381.27,352.58Z" transform="translate(11.07)"/><path class="cls-45" d="M334.43,330.58q9.13-5.76,9.14-13.95t-9.14-14q-9.17-5.76-22.06-5.75t-22.05,5.75q-9.15,5.79-9.14,14t9.14,13.95q9.15,5.79,22.05,5.8t22.06-5.8m161.25,0q9.13-5.76,9.14-13.95t-9.14-14q-9.15-5.76-22.05-5.75t-22.06,5.75q-9.15,5.79-9.14,14t9.14,13.95q9.17,5.79,22.06,5.8T495.68,330.58Z" transform="translate(11.07)"/><path class="cls-46" d="M402.52,299q-8.29-10.25-2.7-24.35-11.9-8.15-22.39.55,7.5,14.2-1.11,24.3a15.39,15.39,0,0,0-4.19,5.11q-2.16,4.78,3.64,8.75,12.47,9,26.75,0,6.56-4.5,3.7-9.91a15.8,15.8,0,0,0-3.7-4.45m-7.45,2.61c1.7,1.06,2.56,2.34,2.56,3.84s-.86,2.77-2.56,3.8a10.94,10.94,0,0,1-6.05,1.61,11.18,11.18,0,0,1-6.09-1.61,4.45,4.45,0,0,1-2.5-3.8,4.55,4.55,0,0,1,2.5-3.84,11.42,11.42,0,0,1,6.09-1.56A11.18,11.18,0,0,1,395.07,301.63Z" transform="translate(11.07)"/><path class="cls-47" d="M397.63,305.47c0-1.5-.86-2.78-2.56-3.84a11.18,11.18,0,0,0-6.05-1.56,11.42,11.42,0,0,0-6.09,1.56,4.55,4.55,0,0,0-2.5,3.84,4.45,4.45,0,0,0,2.5,3.8,11.18,11.18,0,0,0,6.09,1.61,10.94,10.94,0,0,0,6.05-1.61C396.77,308.24,397.63,307,397.63,305.47Z" transform="translate(11.07)"/></g><path id="Layer5_0_1_STROKES" data-name="Layer5 0 1 STROKES" class="cls-48" d="M529,279.77h16m-8,0,3.41,5.45M406.22,303.47q2.85,5.4-3.7,9.91-14.29,9-26.75,0-5.79-4-3.64-8.75m-5.5,36.89a72.42,72.42,0,0,0,47.5,0m-32.86,11.06q9.25,4.1,19.36,0M250.12,278.27h-8.3l-3.89,8.61m3.89-8.61h-8.3" transform="translate(11.07)"/><g id="Layer4_0_FILL" data-name="Layer4 0 FILL"><path class="cls-18" d="M323.22,262.13a13.61,13.61,0,0,0-17.29,1.39l-.21.15a13.64,13.64,0,0,0-.15,19.15l.15.15a13.15,13.15,0,0,0,9.65,4,12.67,12.67,0,0,0,9.65-4,13.64,13.64,0,0,0,0-19.3,14.64,14.64,0,0,0-1.8-1.54m-7.79.34a10.31,10.31,0,0,1,6,1.8,13.11,13.11,0,0,1,1.64,1.4,10.6,10.6,0,0,1,3.2,6.9v.81a10.4,10.4,0,0,1-3.2,7.64,10.25,10.25,0,0,1-3.45,2.4,10.78,10.78,0,0,1-4.19.8h-.21a10.88,10.88,0,0,1,.21-21.75M478.57,283a13.64,13.64,0,0,0,0-19.3,14.64,14.64,0,0,0-1.8-1.54,13.62,13.62,0,0,0-17.3,1.39l-.2.15a13.63,13.63,0,0,0-.14,19.15l.14.15a13.16,13.16,0,0,0,9.66,4,12.71,12.71,0,0,0,9.64-4m-1.94-17.3a10.64,10.64,0,0,1,3.19,6.9v.81a11.2,11.2,0,0,1-6.64,10,10.92,10.92,0,0,1-4.21.8h-.2a10.88,10.88,0,0,1,.2-21.75,10.27,10.27,0,0,1,6,1.8A13.26,13.26,0,0,1,476.63,265.67Z" transform="translate(11.07)"/><path class="cls-49" d="M321.43,264.27a10.31,10.31,0,0,0-6-1.8,10.88,10.88,0,0,0-.21,21.75h.21a10.78,10.78,0,0,0,4.19-.8,10.25,10.25,0,0,0,3.45-2.4,10.4,10.4,0,0,0,3.2-7.64v-.81a10.6,10.6,0,0,0-3.2-6.9,13.11,13.11,0,0,0-1.64-1.4m-6,2.75a7.07,7.07,0,0,1,5.19,2.15,7.43,7.43,0,0,1,2.06,3.75,11.56,11.56,0,0,1,.09,1.46,7.35,7.35,0,0,1-14.7,0,5.65,5.65,0,0,1,.05-.71,7,7,0,0,1,2.1-4.5,7.12,7.12,0,0,1,5.21-2.15m164.39,5.55a10.64,10.64,0,0,0-3.19-6.9,13.26,13.26,0,0,0-1.66-1.4,10.27,10.27,0,0,0-6-1.8,10.52,10.52,0,0,0-7.7,3.2,10.65,10.65,0,0,0-3.14,7.71,10.83,10.83,0,0,0,10.64,10.84h.2a10.92,10.92,0,0,0,4.21-.8,11.2,11.2,0,0,0,6.64-10v-.81m-3.6.35a9.94,9.94,0,0,1,.1,1.46,7.35,7.35,0,1,1-14.69,0,4.24,4.24,0,0,1,.05-.71,7,7,0,0,1,2.09-4.5,7.38,7.38,0,0,1,10.41,0A7.32,7.32,0,0,1,476.22,272.92Z" transform="translate(11.07)"/><path class="cls-50" d="M320.62,269.17a7.33,7.33,0,0,0-12.5,4.5,5.65,5.65,0,0,0-.05.71,7.35,7.35,0,0,0,14.7,0,11.56,11.56,0,0,0-.09-1.46,7.43,7.43,0,0,0-2.06-3.75m155.7,5.21a9.94,9.94,0,0,0-.1-1.46,7.32,7.32,0,0,0-2-3.75,7.38,7.38,0,0,0-10.41,0,7,7,0,0,0-2.09,4.5,4.24,4.24,0,0,0-.05.71,7.35,7.35,0,1,0,14.69,0Z" transform="translate(11.07)"/><path class="cls-51" d="M332.82,250.92a53.43,53.43,0,0,0-9.7-2.6,47.14,47.14,0,0,0-24.5,2.56q-3.69,6.84,3.1,8a31.13,31.13,0,0,1,10.4-3.41,29.73,29.73,0,0,1,17.6,3.5l.3-.09q4.2-2.2,2.8-8m153.56,0a53.87,53.87,0,0,0-9.7-2.6,47.12,47.12,0,0,0-24.5,2.56q-3.71,6.84,3.09,8a31.18,31.18,0,0,1,10.41-3.41,29.71,29.71,0,0,1,17.59,3.5l.3-.09Q487.77,256.68,486.38,250.92Z" transform="translate(11.07)"/></g><g id="Layer3_0_FILL" data-name="Layer3 0 FILL"><path class="cls-52" d="M444.88,2.07q-4.9-4.14-5.95,0l2.34,9.5q4.31,29.25-35.2,55.05-7.95,4.16-10.25,7.9a5.11,5.11,0,0,0-.75,4.55,8.45,8.45,0,0,0,3.36,4q5,1.05,8.64,2.15l2.45.2a10,10,0,0,1,1.11-5,14.34,14.34,0,0,1,3.25-4.25,27.36,27.36,0,0,1,4.19-3.35c.7-.5,2.22-1.46,4.56-2.9a77.06,77.06,0,0,0,21.59-21.3A76.06,76.06,0,0,0,456,20.67l.41-.1a48.47,48.47,0,0,0-4.61-9.35A68.17,68.17,0,0,0,444.88,2.07Z" transform="translate(11.07)"/><path class="cls-53" d="M463.57,163.07a8.93,8.93,0,0,0-.14,1c0,.17-.07.35-.11.56a95.76,95.76,0,0,1-2.3,16.84,73.39,73.39,0,0,1-2,7.41,1.44,1.44,0,0,0-.09.29c.73,1,.95,3.15.64,6.55q-.75,8.55-5.64,27.35,5.08-4,9.64-8.3l-.5-.6,3-31.65a4,4,0,0,0,.05-.7,56.79,56.79,0,0,0,.15-10.3,20.23,20.23,0,0,0-2-7.35A8.39,8.39,0,0,0,463.57,163.07Z" transform="translate(11.07)"/><path class="cls-54" d="M344.93,194.42q1.24-4.59,6.84-6.45,20.55-2.15,32.05-8.15a97.17,97.17,0,0,1-12.14-21,64.37,64.37,0,0,1-8.11,7.55q-7.1,5.76-8.69,7.2a35,35,0,0,0-7.2,8.7A21.91,21.91,0,0,0,344.93,194.42Z" transform="translate(11.07)"/><path class="cls-55" d="M338.43,175a47.75,47.75,0,0,1,5.29-14.14A144,144,0,0,1,324.62,175a37.63,37.63,0,0,0-2.75,9.8q15.51,40.41,39.4,49.56l-9.2-18.61-.3.15a43,43,0,0,1-9.14-11.85,41.43,41.43,0,0,1-4.2-29m-45.06-72.1-.05.15a57,57,0,0,0-4.95,21.45,103.91,103.91,0,0,0,2,24.86,115.19,115.19,0,0,0,4.56,21A87.32,87.32,0,0,0,299.47,182a81.3,81.3,0,0,0,14.75,21.5v0s0,0,0,.06l.25.25.6.59.15.16a.14.14,0,0,0,.05.09h.05a3.31,3.31,0,0,0,.25.3l2.95-3.2-.25-.25-.05,0-.09-.1-.41-.54a2.12,2.12,0,0,1-.2-.25,69.41,69.41,0,0,1-7.3-11.21,35,35,0,0,1-3.3-8.9,75.76,75.76,0,0,1-1.35-18.6,113.59,113.59,0,0,1,2.65-18.5q1.75-7.69,5-18a403.79,403.79,0,0,1,20-50.65,35.24,35.24,0,0,0-7.7,2,73.23,73.23,0,0,0-8.2,3.2,49.28,49.28,0,0,0-4.64,2.4,47.63,47.63,0,0,0-13,10.65,44.17,44.17,0,0,0-5.45,8.1l-.34.7Z" transform="translate(11.07)"/><path class="cls-56" d="M371.68,158.77a77.18,77.18,0,0,1-2.66-7.7,92.49,92.49,0,0,1-1.59-17.1c-.64.94-1.29,1.87-2,2.8a149.37,149.37,0,0,1-21.75,24.11A47.75,47.75,0,0,0,338.43,175a41.43,41.43,0,0,0,4.2,29,43,43,0,0,0,9.14,11.85l.3-.15-6.64-13.35a14.65,14.65,0,0,1-.5-8,21.91,21.91,0,0,1,2.75-12.2,35,35,0,0,1,7.2-8.7q1.59-1.44,8.69-7.2A64.37,64.37,0,0,0,371.68,158.77Z" transform="translate(11.07)"/><path class="cls-57" d="M367.43,133.17v.8a92.49,92.49,0,0,0,1.59,17.1,77.18,77.18,0,0,0,2.66,7.7,97.17,97.17,0,0,0,12.14,21,155.21,155.21,0,0,0,16.06,18.25,29,29,0,0,1,5.84,11,31.06,31.06,0,0,0,0-12.05,55.8,55.8,0,0,0-7.25-18.05l-9-13.85a81.28,81.28,0,0,1-7.84-14.4q-4.36-10.95-4.36-25.65a235.11,235.11,0,0,1,2.25-26.3Q367.82,112.82,367.43,133.17Z" transform="translate(11.07)"/><path class="cls-58" d="M367.43,133.17H367q-1.74-1.54-5.25.85a283.06,283.06,0,0,0-24.4,19,110.08,110.08,0,0,0-9.3,8.95,46,46,0,0,0-7.2,10.45c-.13.27-.25.54-.35.8a34.05,34.05,0,0,0-3.2,10.91c-.1.83-.18,1.68-.25,2.54,0,.54-.05,1.07-.05,1.6,0,1.21,0,2.4.1,3.61a34.94,34.94,0,0,0,1.5,7.79A12.75,12.75,0,0,0,319,201a.46.46,0,0,1,.1.2l-.55.6-2.95,3.2a88.6,88.6,0,0,0,21.75,15.8q-10.55-10.5-14.05-21.1c-.13-.46-.26-.91-.39-1.34a34.49,34.49,0,0,1-1.21-6.75,31.66,31.66,0,0,1,.15-6.81,37.63,37.63,0,0,1,2.75-9.8,144,144,0,0,0,19.1-14.14,149.37,149.37,0,0,0,21.75-24.11c.67-.93,1.32-1.86,2-2.8Z" transform="translate(11.07)"/><path class="cls-59" d="M379.52,98.72a59.6,59.6,0,0,1,8.36-8.2q-20.81-1.74-31.81-8.39a188.83,188.83,0,0,0-17.8,28.54q-5.1,9.81-14.5,30.6-6.64,14.65-9,23-3.75,13.2-1.9,24a31,31,0,0,0,3.9,11c.27.44.55.87.85,1.3s.36.58.56.85l.09.1.05,0,.25.25.55-.6a.46.46,0,0,0-.1-.2,12.75,12.75,0,0,1-.4-1.35,34.94,34.94,0,0,1-1.5-7.79c-.09-1.21-.13-2.4-.1-3.61,0-.53,0-1.06.05-1.6.07-.86.15-1.71.25-2.54a34.05,34.05,0,0,1,3.2-10.91c.1-.26.22-.53.35-.8a46,46,0,0,1,7.2-10.45,110.08,110.08,0,0,1,9.3-8.95,283.06,283.06,0,0,1,24.4-19q3.51-2.4,5.25-.85h.41q.39-20.34,12.09-34.45m69.8-40.55q13.8-18.8,7.11-37.6l-.41.1a76.06,76.06,0,0,1-11.8,27.95,77.06,77.06,0,0,1-21.59,21.3c-2.34,1.44-3.86,2.4-4.56,2.9a27.36,27.36,0,0,0-4.19,3.35,14.34,14.34,0,0,0-3.25,4.25,10,10,0,0,0-1.11,5c2.94.17,5.85.2,8.75.1a76,76,0,0,0,18.66-3.2,40.18,40.18,0,0,1,15.29-1.15c.4-.56.79-1.13,1.16-1.7Q461.72,66.22,449.32,58.17Z" transform="translate(11.07)"/><path class="cls-60" d="M395.43,98.77a39.63,39.63,0,0,0,.79-14.3q-4.14,2.7-8.34,6a59.6,59.6,0,0,0-8.36,8.2,235.11,235.11,0,0,0-2.25,26.3q0,14.7,4.36,25.65a81.28,81.28,0,0,0,7.84,14.4l9,13.85A55.8,55.8,0,0,1,405.77,197a31.06,31.06,0,0,1,0,12.05,21.26,21.26,0,0,1-.15,11.3,29.16,29.16,0,0,1-1.89,4.75q-3.66,7.2-12.16,14.5,3.71,1.5,10.16.25l-.05-.9q3.75-6.94,6.19-11.9c1.07-2.2,2-4.11,2.7-5.75a86.34,86.34,0,0,0,6.11-18.6,53,53,0,0,0,.44-19.79,37.53,37.53,0,0,0-7.69-17.71q-2.06-2.59-10.7-10.4-6.85-6.2-9.3-11.35a26.57,26.57,0,0,1-2.11-14.35,82.22,82.22,0,0,1,3.66-15Q394.62,102.63,395.43,98.77Z" transform="translate(11.07)"/><path class="cls-61" d="M418.47,88.07l-.09.45q.14,9.21,6.39,20.8,3.56,6.62,11.25,19.6,10.5,20.61,8,44.85A79,79,0,0,1,427.13,216q-1.31,1.65-8.11,9.4a86.39,86.39,0,0,0-8.75,11.9,125.2,125.2,0,0,0,13-5.55q26.65-15.79,35.66-42.6a1.44,1.44,0,0,1,.09-.29,73.39,73.39,0,0,0,2-7.41,95.76,95.76,0,0,0,2.3-16.84c0-.21.07-.39.11-.56a8.93,8.93,0,0,1,.14-1q9-58-18.14-72.44c-.37-.21-.75-.4-1.16-.61A116.29,116.29,0,0,1,418.47,88.07Z" transform="translate(11.07)"/><path class="cls-62" d="M395.82,74.52q2.31-3.75,10.25-7.9Q381.17,47.43,356.22,43a76.83,76.83,0,0,0-48.85,9.35q13.41-5.74,23.65-.45a31.52,31.52,0,0,1,13.55,1.75,37.49,37.49,0,0,1,10.31,6.1c.89.77,2.18,1.92,3.84,3.45a36.23,36.23,0,0,0,4,3.2,23.07,23.07,0,0,0,9.25,3.5,51.14,51.14,0,0,0,10.11.5,41.65,41.65,0,0,1,4.55,0,13.73,13.73,0,0,1,4.34.89A22.78,22.78,0,0,1,395.82,74.52Z" transform="translate(11.07)"/><path class="cls-63" d="M396.22,84.47l2.21-1.4a8.45,8.45,0,0,1-3.36-4c-3.2.27-6.81.4-10.85.4-1.7,0-5.56-.06-11.59-.2-3.94-.13-6.8-.63-8.61-1.5a16.69,16.69,0,0,1-3.39-2.39c-.64-.61-1.64-1.64-3-3.11q-9.51-10.44-18.86-13.35l-.45.3,11.11,17.5a29.48,29.48,0,0,0,6.64,5.41q11,6.65,31.81,8.39Q392.08,87.18,396.22,84.47Z" transform="translate(11.07)"/><path class="cls-64" d="M398.43,83.07l-2.21,1.4a39.63,39.63,0,0,1-.79,14.3q-.81,3.86-4.5,15.3a82.22,82.22,0,0,0-3.66,15,26.57,26.57,0,0,0,2.11,14.35q2.44,5.16,9.3,11.35,8.64,7.81,10.7,10.4a37.53,37.53,0,0,1,7.69,17.71,53,53,0,0,1-.44,19.79,86.34,86.34,0,0,1-6.11,18.6c-.73,1.64-1.63,3.55-2.7,5.75q-2.44,4.95-6.19,11.9l.05.9a66.26,66.26,0,0,0,8.59-2.5,86.39,86.39,0,0,1,8.75-11.9q6.81-7.74,8.11-9.4A79,79,0,0,0,444,173.77q2.5-24.24-8-44.85-7.69-13-11.25-19.6-6.24-11.59-6.39-20.8l.09-.45a115.79,115.79,0,0,1-11.4-2.85Q403.42,84.13,398.43,83.07Z" transform="translate(11.07)"/><path class="cls-65" d="M395.07,79.07a5.11,5.11,0,0,1,.75-4.55,22.78,22.78,0,0,0-4.8-3.25,13.73,13.73,0,0,0-4.34-.89,41.65,41.65,0,0,0-4.55,0,51.14,51.14,0,0,1-10.11-.5,23.07,23.07,0,0,1-9.25-3.5,36.23,36.23,0,0,1-4-3.2c-1.66-1.53-3-2.68-3.84-3.45a37.49,37.49,0,0,0-10.31-6.1A31.52,31.52,0,0,0,331,51.92a27.82,27.82,0,0,1,4.55,3l2.4,3.75.35.5.45-.3q9.36,2.91,18.86,13.35c1.36,1.47,2.36,2.5,3,3.11A16.69,16.69,0,0,0,364,77.77c1.81.87,4.67,1.37,8.61,1.5,6,.14,9.89.2,11.59.2C388.26,79.47,391.87,79.34,395.07,79.07Z" transform="translate(11.07)"/><path class="cls-66" d="M307,180.52a35,35,0,0,0,3.3,8.9,69.41,69.41,0,0,0,7.3,11.21,2.12,2.12,0,0,0,.2.25l.41.54c-.2-.27-.38-.55-.56-.85s-.58-.86-.85-1.3a31,31,0,0,1-3.9-11q-1.85-10.74,1.9-24,2.36-8.38,9-23,9.41-20.79,14.5-30.6a188.83,188.83,0,0,1,17.8-28.54,29.48,29.48,0,0,1-6.64-5.41,33,33,0,0,0-16.21-2,403.79,403.79,0,0,0-20,50.65q-3.24,10.3-5,18a113.59,113.59,0,0,0-2.65,18.5A75.76,75.76,0,0,0,307,180.52Z" transform="translate(11.07)"/><path class="cls-67" d="M296.47,191.47a89,89,0,0,1,3-9.45,87.32,87.32,0,0,1-4.54-11.64l-.41,0a77.27,77.27,0,0,0-3.3,19.85,78.31,78.31,0,0,0,3,22.65A75.9,75.9,0,0,1,296.47,191.47Z" transform="translate(11.07)"/><path class="cls-68" d="M268.47,152.82l-1.5-1.5q-7.59,6.45-8.85,8.7a9.53,9.53,0,0,0-1.05,4.3,6.65,6.65,0,0,0,1.3,4,13.41,13.41,0,0,0,1.15,1.3,8.43,8.43,0,0,1,1,1.35,5.25,5.25,0,0,1,.55,3.1c-.06.44-.29,1.57-.7,3.4a32,32,0,0,0-.5,7.35,10.25,10.25,0,0,0,1.25,4.5,4.91,4.91,0,0,0,1.9,1.61,3.1,3.1,0,0,0,2.25.14,14.84,14.84,0,0,0,4.5,15l1.05.9a53.15,53.15,0,0,1,5.55-5.7,62.38,62.38,0,0,1-5.44-12Q265.58,173.13,268.47,152.82Z" transform="translate(11.07)"/><path class="cls-69" d="M241.32,147.52l-.95,2.7a4,4,0,0,0,1,2.8,4.3,4.3,0,0,0,2.7,1.45,4.18,4.18,0,0,0,3-.7,22.49,22.49,0,0,1-1.34,13,84.17,84.17,0,0,1-6.31,12.2,57.26,57.26,0,0,1,11.9-4,18.8,18.8,0,0,1-5.9,9.9,15.48,15.48,0,0,0-2.05,2.21,3.64,3.64,0,0,0-.6,1.39,2.41,2.41,0,0,0,.15,1.25,5.47,5.47,0,0,0,.95,1.36,4.66,4.66,0,0,1,1,1.29,3.05,3.05,0,0,1-.25,2.3,15.63,15.63,0,0,0-.9,2.45,3.75,3.75,0,0,0,.75,2.85,5.18,5.18,0,0,0,2.4,1.9,10.33,10.33,0,0,0,6.1-.4c1-.26,1.64-.43,2-.5a3.17,3.17,0,0,1,1.9.25c1,.67,1.39,1.92,1.25,3.75a24.28,24.28,0,0,1-2,7.2q-1,2.35-3.2,6.95-3.95,9.11-.65,14.6l-.15.61a21.12,21.12,0,0,0,8.85.84q.51-16.65,10-28.3l-1.05-.9a14.84,14.84,0,0,1-4.5-15,3.1,3.1,0,0,1-2.25-.14,4.91,4.91,0,0,1-1.9-1.61,10.25,10.25,0,0,1-1.25-4.5,32,32,0,0,1,.5-7.35c.41-1.83.64-3,.7-3.4a5.25,5.25,0,0,0-.55-3.1,8.43,8.43,0,0,0-1-1.35,13.41,13.41,0,0,1-1.15-1.3,6.65,6.65,0,0,1-1.3-4,9.53,9.53,0,0,1,1.05-4.3q1.26-2.25,8.85-8.7l1.6-1.35a2.86,2.86,0,0,1,.36-.3h-.36A268.14,268.14,0,0,1,241.32,147.52Z" transform="translate(11.07)"/><path class="cls-70" d="M290.37,149.38a103.91,103.91,0,0,1-2-24.86q-10.35,30-8.6,58.5,1.16,17.1,8.7,25.4a21.51,21.51,0,0,0,5.71,4.5,78.31,78.31,0,0,1-3-22.65,77.27,77.27,0,0,1,3.3-19.85l.41,0A115.19,115.19,0,0,1,290.37,149.38Z" transform="translate(11.07)"/><path class="cls-71" d="M230,145.67q-4-.75-7.8-1.65L217.87,154l11.25-3.9-12.25,18.15q-4.1,6,0,7.8,5.4.81,7.45-4.3l5.36-10.55q4-2.85,4.59,5.6l-10.05,22.65q-3.28,8,2.3,4.6l8.95-9.8a3.77,3.77,0,0,1,2.25-.45c1,.21,1.15,1.34.55,3.4-.23.74-.55,1.59-1,2.55l-17.14,19.16a122.92,122.92,0,0,0,17.84-5Q231,211.68,235,222l9.35-11.25q7.56-6.45,6.5,4.35c-.46.94-.88,1.85-1.25,2.75q-5.6,13.26,2.2,16.5a.15.15,0,0,1,.11.06h0l.15-.61q-3.3-5.49.65-14.6,2.21-4.59,3.2-6.95a24.28,24.28,0,0,0,2-7.2c.14-1.83-.28-3.08-1.25-3.75a3.17,3.17,0,0,0-1.9-.25c-.36.07-1,.24-2,.5a10.33,10.33,0,0,1-6.1.4,5.18,5.18,0,0,1-2.4-1.9,3.75,3.75,0,0,1-.75-2.85,15.63,15.63,0,0,1,.9-2.45,3.05,3.05,0,0,0,.25-2.3,4.66,4.66,0,0,0-1-1.29,5.47,5.47,0,0,1-.95-1.36,2.41,2.41,0,0,1-.15-1.25,3.64,3.64,0,0,1,.6-1.39,15.48,15.48,0,0,1,2.05-2.21,18.8,18.8,0,0,0,5.9-9.9,57.26,57.26,0,0,0-11.9,4,84.17,84.17,0,0,0,6.31-12.2,22.49,22.49,0,0,0,1.34-13,4.18,4.18,0,0,1-3,.7,4.3,4.3,0,0,1-2.7-1.45,4.37,4.37,0,0,1-.05-5.5Q235.47,146.73,230,145.67Z" transform="translate(11.07)"/><path class="cls-72" d="M222.37,133.42a20.15,20.15,0,0,1-6.85-1.25,22.66,22.66,0,0,1-6.15-4.4q-7.35,3.31-14.15,7a135.24,135.24,0,0,0,27,9.25q3.81.9,7.8,1.65,5.46,1.05,11.3,1.85a268.14,268.14,0,0,0,27.25,2.15h.36q.75-5.1,1.69-9.6l-.75-.15q-7.44.75-20.25-2.6-14.25-3.75-20.25-3.9C226.28,133.46,223.94,133.46,222.37,133.42Z" transform="translate(11.07)"/><path class="cls-73" d="M230,123.77a35.22,35.22,0,0,0-4-.39q-2.25-.21-5.79-.21l-.75.3q-5.16,2.06-10.06,4.3a22.66,22.66,0,0,0,6.15,4.4,20.15,20.15,0,0,0,6.85,1.25c1.57,0,3.91,0,7,0q6,.15,20.25,3.9,12.81,3.36,20.25,2.6l.75.15c.5-2.43,1.07-4.75,1.7-6.94L272,133a108.27,108.27,0,0,0-13.25-2.25,96.77,96.77,0,0,1-13.25-2.25q-1.74-.5-6.45-2.2a52.66,52.66,0,0,0-6.55-2C231.72,124.07,230.87,123.91,230,123.77Z" transform="translate(11.07)"/><path class="cls-74" d="M226,123.38a35.22,35.22,0,0,1,4,.39c.9.14,1.75.3,2.55.5a52.66,52.66,0,0,1,6.55,2q4.71,1.71,6.45,2.2a96.77,96.77,0,0,0,13.25,2.25A108.27,108.27,0,0,1,272,133l.3.11v-.06q3.1-11.44,7.75-18.69a233.14,233.14,0,0,1-24.7-2.46q-12.84,3.26-24.6,7.35-5.4,1.86-10.59,3.9Q223.72,123.17,226,123.38Z" transform="translate(11.07)"/><path class="cls-75" d="M292.47,103.38h0q-7.15,2.9-12.36,11-4.65,7.25-7.75,18.69v.06c-.63,2.19-1.2,4.51-1.7,6.94q-.94,4.5-1.69,9.6c-.17,1-.32,2.09-.46,3.15q-2.89,20.31,2.46,36.4a62.38,62.38,0,0,0,5.44,12,64.63,64.63,0,0,0,7.95,10.66,2.15,2.15,0,0,0,.25.29,71.28,71.28,0,0,0,10.4,9.25,73.78,73.78,0,0,1-.79-8.5,21.51,21.51,0,0,1-5.71-4.5q-7.55-8.29-8.7-25.4-1.74-28.54,8.6-58.5a57,57,0,0,1,4.95-21.45C293,103.17,292.74,103.27,292.47,103.38Z" transform="translate(11.07)"/><path class="cls-76" d="M278,73.52l-.15.45,9.56,4,25.25,4.3a49.28,49.28,0,0,1,4.64-2.4l-.3-.65a47.82,47.82,0,0,0-18.95-7A48.44,48.44,0,0,0,278,73.52Z" transform="translate(11.07)"/><path class="cls-77" d="M312.87,67.67a68.72,68.72,0,0,1-12.8-1.5q-8.44-1.8-12.7-2.5a46.86,46.86,0,0,0-14.15-.4,26.18,26.18,0,0,0-11,4L277.87,74l.15-.45a48.44,48.44,0,0,1,20.05-1.2,47.82,47.82,0,0,1,18.95,7l.3.65a73.23,73.23,0,0,1,8.2-3.2,35.24,35.24,0,0,1,7.7-2,2.29,2.29,0,0,1,.21-.39l-.11-.31a9.76,9.76,0,0,0-3.5-4.15,13,13,0,0,0-5.45-2.15,33,33,0,0,0-5.69-.25C316.11,67.62,314.17,67.67,312.87,67.67Z" transform="translate(11.07)"/><path class="cls-78" d="M237.22,88.82q7.75-1.29,21.75.65,15.36,2.1,21.9,1.55c6.3-.6,9.6-.89,9.9-.89,3.74,0,6.65.88,8.75,2.64l.2.2a47.63,47.63,0,0,1,13-10.65L287.43,78Q263.33,78.17,237.22,88.82Z" transform="translate(11.07)"/><path class="cls-79" d="M253.87,63.77l8.35,3.55a26.18,26.18,0,0,1,11-4,46.86,46.86,0,0,1,14.15.4q4.26.7,12.7,2.5a68.72,68.72,0,0,0,12.8,1.5c1.3,0,3.24,0,5.81-.15a33,33,0,0,1,5.69.25,13,13,0,0,1,5.45,2.15,9.76,9.76,0,0,1,3.5,4.15l.11.31a2.29,2.29,0,0,0-.21.39,33,33,0,0,1,16.21,2l-11.11-17.5-.35-.5a165.94,165.94,0,0,0-65.7.35Q263.12,60.93,253.87,63.77Z" transform="translate(11.07)"/><path class="cls-80" d="M262.72,104.38a43.1,43.1,0,0,1-8-.86,54.07,54.07,0,0,1-8.2-2.75q-6.6-2.74-8-3.25-10.05-3.69-16.9-.85l-.25-.5q-4,2.06-8,4.35a193.51,193.51,0,0,0,42,11.4,233.14,233.14,0,0,0,24.7,2.46q5.21-8.1,12.36-11l-21.66.79Q265.37,104.43,262.72,104.38Z" transform="translate(11.07)"/><path class="cls-81" d="M254.77,103.52a43.1,43.1,0,0,0,8,.86q2.65,0,8-.21l21.66-.79h0c.27-.11.56-.21.85-.31l.05-.15.2-.45.36-.7.34-.7a44.17,44.17,0,0,1,5.45-8.1l-.2-.2c-2.1-1.76-5-2.64-8.75-2.64-.3,0-3.6.29-9.9.89q-6.54.56-21.9-1.55-14-1.95-21.75-.65-7.84,3.21-15.85,7.35l.25.5q6.85-2.85,16.9.85,1.46.51,8,3.25A54.07,54.07,0,0,0,254.77,103.52Z" transform="translate(11.07)"/><path class="cls-82" d="M537.88,179.13c-.3-1.71.24-2.84,1.64-3.41a68,68,0,0,0-10.2-8.05c-1.16-.73-2.33-1.43-3.5-2.1l-.05,0-.39.75a.82.82,0,0,0-.86-.39,1.38,1.38,0,0,0-1,.39,2.52,2.52,0,0,0-.5,2.15,8.79,8.79,0,0,0,1.86,4.6,11.85,11.85,0,0,0,3.89,3.25,9.31,9.31,0,0,1,2.25,1.4,2.63,2.63,0,0,1,1,2.1,2.39,2.39,0,0,1-.95,1.61,4.43,4.43,0,0,1-1.8.79,11,11,0,0,1-1.95.21c-.86,0-1.51.08-1.94.14-.91.24-1.36.62-1.36,1.15a4.69,4.69,0,0,0,.36,1l5.75,7.6c.43.64.68,1,.75,1.15a1.85,1.85,0,0,1,.14,1.25c-.19.54-.78,1-1.75,1.25a6.31,6.31,0,0,1-2,.1,1.93,1.93,0,0,1-.45-.05,13.81,13.81,0,0,1-2.85-.8c-2.29-1-4-1.75-5.2-2.15a1.83,1.83,0,0,0-1.75,0c-.43.27-.56,1-.39,2.15a45.43,45.43,0,0,0,10.75,22.5l1.3-.5s0,0,0,0q-5.31-13.5-1.91-15.41,7.75,1.16,14.41,13.66,4.14-6.66-1.31-17.61a55.36,55.36,0,0,0,16.45,4.2l-16.75-18.9A12.54,12.54,0,0,1,537.88,179.13Z" transform="translate(11.07)"/><path class="cls-83" d="M477.43,188.07a73.7,73.7,0,0,0,2.09-15.15q.3-9.24-3-24.2-4-18.24-4.64-24.2c0-.1-.17-3-.5-8.85a69.34,69.34,0,0,0-1-9q-2-10.4-8.25-15.5a16.08,16.08,0,0,0-1.91-1.25,15.26,15.26,0,0,0-6.45-1.9,11.1,11.1,0,0,0-8.34,2.61q27.09,14.4,18.14,72.44a8.39,8.39,0,0,1,.65,1.1,20.23,20.23,0,0,1,2,7.35,56.79,56.79,0,0,1-.15,10.3,4,4,0,0,1-.05.7l-3,31.65.5.6a0,0,0,0,1,.05-.05,116.12,116.12,0,0,0,10.31-11.3l-.61-.5Q476.27,193,477.43,188.07Z" transform="translate(11.07)"/><path class="cls-84" d="M499.27,150.42l-.3-1.2a102.18,102.18,0,0,1-10.84,2.41q5.39,16-1.91,32.5l-1.09,3a44.21,44.21,0,0,1,14.3,7.14l.59-.85a22.12,22.12,0,0,1,.5-5.45c.6-3,.94-4.85,1-5.45q.51-4.5-2-16.25Q497.22,156.08,499.27,150.42Z" transform="translate(11.07)"/><path class="cls-85" d="M525.13,143.92l-.36.5L524,146a21.49,21.49,0,0,0-1.2,3.11,5.73,5.73,0,0,0-.19,3.14,5.79,5.79,0,0,0,1.25,2.4q.3.36,1.89,2.1,1.65,1.9,3.11,3.9a8.22,8.22,0,0,1,1.64,3.6c.14,1.67-.26,2.8-1.2,3.4a68,68,0,0,1,10.2,8.05,73.12,73.12,0,0,1,8,8.95q7.6,8.21,5.8,0c-.43-.83-.86-1.65-1.3-2.45q-10.69-20.25-9-26.55l-9.95-6.54Z" transform="translate(11.07)"/><path class="cls-86" d="M524.77,144.42l.36-.5-6-3.95A68.9,68.9,0,0,1,499,149.22l.3,1.2q-2,5.66.2,15.85,2.56,11.76,2,16.25c-.06.6-.4,2.42-1,5.45a22.12,22.12,0,0,0-.5,5.45l-.59.85q14.44,11.05,16.34,34.11h5.5q9.15,1.1,8.05-9.5c-.23-.57-.45-1.14-.64-1.71l-1.3.5a45.43,45.43,0,0,1-10.75-22.5c-.17-1.16,0-1.88.39-2.15a1.83,1.83,0,0,1,1.75,0c1.17.4,2.91,1.12,5.2,2.15a13.81,13.81,0,0,0,2.85.8,1.93,1.93,0,0,0,.45.05,6.31,6.31,0,0,0,2-.1c1-.3,1.56-.71,1.75-1.25a1.85,1.85,0,0,0-.14-1.25c-.07-.13-.32-.51-.75-1.15l-5.75-7.6a4.69,4.69,0,0,1-.36-1c0-.53.45-.91,1.36-1.15.43-.06,1.08-.11,1.94-.14a11,11,0,0,0,1.95-.21,4.43,4.43,0,0,0,1.8-.79,2.39,2.39,0,0,0,.95-1.61,2.63,2.63,0,0,0-1-2.1,9.31,9.31,0,0,0-2.25-1.4,11.85,11.85,0,0,1-3.89-3.25,8.79,8.79,0,0,1-1.86-4.6,2.52,2.52,0,0,1,.5-2.15,1.38,1.38,0,0,1,1-.39.82.82,0,0,1,.86.39l.39-.75.05,0c1.17.67,2.34,1.37,3.5,2.1l1.2-3.4a8.22,8.22,0,0,0-1.64-3.6q-1.46-2-3.11-3.9-1.59-1.74-1.89-2.1a5.79,5.79,0,0,1-1.25-2.4,5.73,5.73,0,0,1,.19-3.14A21.49,21.49,0,0,1,524,146Z" transform="translate(11.07)"/><path class="cls-87" d="M529,130.77c.47.27.92.55,1.36.86a77.55,77.55,0,0,1,14.8,11.94l13.54,3.75q-3.75-12.24-15.5-23Z" transform="translate(11.07)"/><path class="cls-88" d="M530,132.17l.36-.54c-.44-.31-.89-.59-1.36-.86a48,48,0,0,1-9.89,9.2l6,3.95,7.94,5.21.31-.46a4.33,4.33,0,0,0,1.39-2.4,4.77,4.77,0,0,0,0-2.75,22.39,22.39,0,0,0-2.25-3.85A17.25,17.25,0,0,1,530,132.17Z" transform="translate(11.07)"/><path class="cls-89" d="M530.38,131.63l-.36.54a17.25,17.25,0,0,0,2.5,7.5,22.39,22.39,0,0,1,2.25,3.85,4.77,4.77,0,0,1,0,2.75,4.33,4.33,0,0,1-1.39,2.4l-.31.46,9.95,6.54q.3-4.39,4.75-.15l5.36,10.55q5.55,6.66,8.75,1.9-3.06-10.54-16.7-24.4A77.55,77.55,0,0,0,530.38,131.63Z" transform="translate(11.07)"/><path class="cls-90" d="M552.72,114.32a25,25,0,0,0-4.09-.3q-10.86-.24-17,.11a77,77,0,0,0-16.41,2.59l-.2.1a88.94,88.94,0,0,1-27.85,10,111.84,111.84,0,0,1-.15,11.2q10.9-2.34,29.11-9.39a93.52,93.52,0,0,1,11.75-3.31,57.31,57.31,0,0,1,16.25-1.4l15.64-7.1a5,5,0,0,1-1.85-.55,21.91,21.91,0,0,0-2.2-1.1A14.07,14.07,0,0,0,552.72,114.32Z" transform="translate(11.07)"/><path class="cls-91" d="M548.63,114a25,25,0,0,1,4.09.3,14.07,14.07,0,0,1,3,.85,21.91,21.91,0,0,1,2.2,1.1,5,5,0,0,0,1.85.55l8.86-4-34.61-8.7a135,135,0,0,1-18.8,12.65,77,77,0,0,1,16.41-2.59Q537.77,113.77,548.63,114Z" transform="translate(11.07)"/><path class="cls-92" d="M543.22,124.32l1-.4a57.31,57.31,0,0,0-16.25,1.4,93.52,93.52,0,0,0-11.75,3.31q-18.21,7-29.11,9.39c-.2,2.84-.48,5.8-.85,8.9.71,1.57,1.34,3.14,1.91,4.71A102.18,102.18,0,0,0,499,149.22,68.9,68.9,0,0,0,519.13,140a48,48,0,0,0,9.89-9.2Z" transform="translate(11.07)"/><path class="cls-93" d="M483.32,61q1.71-8.44.45-12.25L473,53.67q11-15.8,8.75-24.9-4.94-12.64-13.15-12.6,12.56,16.5-19.25,42,12.4,8.05,4.06,21.3c-.37.57-.76,1.14-1.16,1.7a31.45,31.45,0,0,1,6.1,1.5A65.41,65.41,0,0,1,483.32,61Z" transform="translate(11.07)"/><path class="cls-94" d="M534.07,104.07c.37-.3.76-.61,1.15-.94a5.6,5.6,0,0,1,.6-.36,112.57,112.57,0,0,1,10.75-6.1q-6.15,1.8-12.25,3.55-24.35,7-47.94,12.7l-.86.21a74,74,0,0,1,1.7,13.69,88.94,88.94,0,0,0,27.85-10l.2-.1A135,135,0,0,0,534.07,104.07Z" transform="translate(11.07)"/><path class="cls-95" d="M477.88,96.88a35.5,35.5,0,0,1,6.55,12.19q15.19-6.3,23.75-14.4,1.44-1.4,2.7-2.85c1.8-1.09,3.61-2.15,5.44-3.15q1.9-1.1,3.81-2.1a21.39,21.39,0,0,0-5.31-.69A58.57,58.57,0,0,0,499,88.27a176.47,176.47,0,0,0-20.09,7.65Z" transform="translate(11.07)"/><path class="cls-96" d="M484.43,109.07a35.5,35.5,0,0,0-6.55-12.19A27.89,27.89,0,0,0,470,90.42a38.22,38.22,0,0,0-3.7-3.35,32.43,32.43,0,0,0-3.14-2.15,28.82,28.82,0,0,0-4.81-2.25,31.45,31.45,0,0,0-6.1-1.5,40.18,40.18,0,0,0-15.29,1.15,76,76,0,0,1-18.66,3.2c-2.9.1-5.81.07-8.75-.1l-2.45-.2a115.79,115.79,0,0,0,11.4,2.85,116.29,116.29,0,0,0,25.8,2c.41.21.79.4,1.16.61A11.1,11.1,0,0,1,453.77,88a15.26,15.26,0,0,1,6.45,1.9,16.08,16.08,0,0,1,1.91,1.25q6.3,5.1,8.25,15.5a69.34,69.34,0,0,1,1,9c.33,5.81.5,8.75.5,8.85q.58,6,4.64,24.2,3.3,15,3,24.2a73.7,73.7,0,0,1-2.09,15.15q-1.15,4.91-4.16,14.85l.61.5A113.49,113.49,0,0,0,484.72,187l1.5-2.89q7.3-16.45,1.91-32.5c-.57-1.57-1.2-3.14-1.91-4.71.37-3.1.65-6.06.85-8.9a111.84,111.84,0,0,0,.15-11.2,74,74,0,0,0-1.7-13.69C485.19,111.73,484.83,110.37,484.43,109.07Z" transform="translate(11.07)"/><path class="cls-97" d="M514.57,81a23.53,23.53,0,0,1-4.14,0l-7.91-1a62.8,62.8,0,0,0-35.64,6.15l-.61.9a38.22,38.22,0,0,1,3.7,3.35,27.89,27.89,0,0,1,7.91,6.46l1-1A176.47,176.47,0,0,1,499,88.27a58.57,58.57,0,0,1,15.85-2.39,21.39,21.39,0,0,1,5.31.69c1.7-.9,3.39-1.78,5.09-2.65l-.2-.4c-.56,0-1-.5-1.45-1.39a6.32,6.32,0,0,0-1.19-2,2.75,2.75,0,0,0-2.11-.5,11.92,11.92,0,0,0-2.25.6A14.58,14.58,0,0,1,514.57,81Z" transform="translate(11.07)"/><path class="cls-98" d="M510.43,81.07a23.53,23.53,0,0,0,4.14,0,14.58,14.58,0,0,0,3.45-.75,11.92,11.92,0,0,1,2.25-.6,2.75,2.75,0,0,1,2.11.5,6.32,6.32,0,0,1,1.19,2c.4.89.89,1.36,1.45,1.39l.2.4q5.76-2.85,11.6-5.29,6.06-2.56,12.25-4.66Q501.73,59.27,483.32,61a65.41,65.41,0,0,0-25,21.65,28.82,28.82,0,0,1,4.81,2.25,32.43,32.43,0,0,1,3.14,2.15l.61-.9A62.8,62.8,0,0,1,502.52,80Z" transform="translate(11.07)"/><path class="cls-99" d="M557,92.07l-.2-.55a76.89,76.89,0,0,1-10.25.55,5,5,0,0,0-.64,0c-1.27-.06-3.2-.25-5.81-.55s-4.49-.45-5.8-.55a67.6,67.6,0,0,0-22.84,2.75c-1.07.31-2.16.64-3.25,1q-8.56,8.1-23.75,14.4c.4,1.3.76,2.66,1.09,4.06l.86-.21q23.6-5.74,47.94-12.7,6.1-1.74,12.25-3.55Q551.63,94.14,557,92.07Z" transform="translate(11.07)"/><path class="cls-98" d="M556.77,91.52l.2.55a137.84,137.84,0,0,1,14.46-4.65l-34.61-8.79q-5.84,2.45-11.6,5.29c-1.7.87-3.39,1.75-5.09,2.65q-1.9,1-3.81,2.1c-1.83,1-3.64,2.06-5.44,3.15q-1.26,1.46-2.7,2.85c1.09-.36,2.18-.69,3.25-1a67.6,67.6,0,0,1,22.84-2.75c1.31.1,3.24.29,5.8.55s4.54.49,5.81.55a5,5,0,0,1,.64,0A76.89,76.89,0,0,0,556.77,91.52Z" transform="translate(11.07)"/></g><g id="Layer2_0_FILL" data-name="Layer2 0 FILL"><path class="cls-100" d="M540.47,254.88h-13q.66-18.47-21-16.31H429.68q-19.11-1.74-21,14.56V265a72.61,72.61,0,0,0-19.34-2.5,100.28,100.28,0,0,0-18.7,1.86V253.13q-1.86-16.31-21-14.56H272.93q-21.66-2.15-21,16.31h-13q-4.35,6.35,0,11.94h12.34v29.1q.66,14.31,15.91,16.55h88q15.75-2.19,15.46-18.3V271.22a62.74,62.74,0,0,1,18.84-3.15,64.48,64.48,0,0,1,19.2,2.7v23.4q-.3,16.11,15.46,18.3h88q15.25-2.25,15.91-16.55v-29.1h12.34q4.35-5.6,0-11.94m-23.15,6.64v26.7q-.59,16.3-16.35,17.66H428.38q-14.16,1.14-14.81-12v-33.5a21.62,21.62,0,0,1-.05-3.2,19.81,19.81,0,0,1,.3-2.84q1.56-7.9,10.36-8.56h83.45q10.8,4.11,9.69,15.7m-151.69-7.1a19.86,19.86,0,0,1,.3,2.8,25.23,25.23,0,0,1-.11,3.2v33.5q-.65,13.11-14.8,12H278.43q-15.75-1.35-16.36-17.66v-26.7q-1.1-11.59,9.7-15.7h83.45Q364.07,246.48,365.63,254.42Z" transform="translate(11.07)"/><path class="cls-101" d="M365.93,257.22a19.86,19.86,0,0,0-.3-2.8q-1.56-7.95-10.41-8.6H271.77q-10.8,4.11-9.7,15.7v26.7q.6,16.3,16.36,17.66H351q14.16,1.14,14.8-12v-33.5a25.23,25.23,0,0,0,.11-3.2m151.39,31v-26.7q1.11-11.59-9.69-15.7H424.18q-8.81.66-10.36,8.56a19.81,19.81,0,0,0-.3,2.84,21.62,21.62,0,0,0,.05,3.2v33.5q.66,13.11,14.81,12H501Q516.72,304.53,517.32,288.22Z" transform="translate(11.07)"/></g></g></g></g></svg>